/* XPM */
static char *_109147f6dab4134e6e4cee82e0207d2bSmrNAJMFD9Uct01[] = {
/* columns rows colors chars-per-pixel */
"64 64 148 2 ",
"   c #2B6302",
".  c #2E6508",
"X  c #326B06",
"o  c #356D0C",
"O  c #37710C",
"+  c #3A720E",
"@  c #366E11",
"#  c #386F11",
"$  c #377011",
"%  c #3C7513",
"&  c #3F7814",
"*  c #3E7519",
"=  c #3F7819",
"-  c #417A0F",
";  c #407714",
":  c #427A15",
">  c #40771A",
",  c #447C1B",
"<  c #487F1A",
"1  c #467D21",
"2  c #487F22",
"3  c #457A2A",
"4  c #478016",
"5  c #488317",
"6  c #47801C",
"7  c #4A821D",
"8  c #4F881E",
"9  c #50891E",
"0  c #478021",
"q  c #4C8423",
"w  c #4F8824",
"e  c #4E8629",
"r  c #4F882A",
"t  c #508724",
"y  c #528A25",
"u  c #508729",
"i  c #548C2B",
"p  c #588F2C",
"a  c #569026",
"s  c #589226",
"d  c #57902C",
"f  c #5A922D",
"g  c #5E982E",
"h  c #4E8430",
"j  c #568E30",
"k  c #588F31",
"l  c #578F38",
"z  c #579031",
"x  c #5A9134",
"c  c #5C9336",
"v  c #5D9534",
"b  c #5F9734",
"n  c #5D9436",
"m  c #5D9437",
"M  c #5F9736",
"N  c #5C9432",
"B  c #5F9831",
"V  c #5E9832",
"C  c #5F9932",
"Z  c #5E9833",
"A  c #5F9639",
"S  c #5E9638",
"D  c #5F983A",
"F  c #639D2F",
"G  c #619A2E",
"H  c #609732",
"J  c #619735",
"K  c #609734",
"L  c #629931",
"P  c #619A31",
"I  c #629B30",
"U  c #619833",
"Y  c #639C33",
"T  c #619934",
"R  c #609835",
"E  c #619B35",
"W  c #639A34",
"Q  c #629A35",
"!  c #639A35",
"~  c #619936",
"^  c #609A36",
"/  c #639B36",
"(  c #629A37",
")  c #649B36",
"_  c #639C35",
"`  c #649D34",
"'  c #659C36",
"]  c #619A35",
"[  c #609739",
"{  c #619938",
"}  c #639B38",
"|  c #61983A",
" . c #649C39",
".. c #669E39",
"X. c #659D3A",
"o. c #649C3B",
"O. c #669E3B",
"+. c #649B3D",
"@. c #649B3E",
"#. c #679F3C",
"$. c #649C3B",
"%. c #699F3D",
"&. c #67A037",
"*. c #68A136",
"=. c #66A03C",
"-. c #67A13D",
";. c #67A03C",
":. c #68A03B",
">. c #6AA13B",
",. c #69A13C",
"<. c #68A03D",
"1. c #6AA23D",
"2. c #6AA23F",
"3. c #6AA43E",
"4. c #69A23D",
"5. c #6FA83D",
"6. c #669D40",
"7. c #679F40",
"8. c #689F41",
"9. c #689F41",
"0. c #67A041",
"q. c #6BA141",
"w. c #6BA340",
"e. c #69A043",
"r. c #6DA341",
"t. c #6DA343",
"y. c #6EA740",
"u. c #6DA542",
"i. c #6EA643",
"p. c #68A047",
"a. c #6CA443",
"s. c #6FA843",
"d. c #6FA44C",
"f. c #6EA649",
"g. c #70A843",
"h. c #71A946",
"j. c #72AB45",
"k. c #70A749",
"l. c #73AB48",
"z. c #71A84B",
"x. c #74AA48",
"c. c #74AC49",
"v. c #75AD4A",
"b. c #73AB4A",
"n. c #79B24D",
"m. c #77AE50",
"M. c #7BB351",
"N. c #80B952",
/* pixels */
"p w.u.N q d O.t g N j u +.q &.F T ; R r.t J w.w b b d f T f : b.N q b w.q b N d T ' p 7 x.y y g R t { w R j.<.q i r.7 g g J 2 d.",
": q d O.w , <.w 7 d i q 1 : g s ) t q d q q N p , : : T g u.: i O., j x u < + y <.d R ; p y , g R : , < d R N b > p < 7 d p q 2 ",
"N q , t d : t i R t < * , d 7 4 i p : q N i q q o w t w ; O.w < w i x , q , t d 7 7 H ; , i d T < , , N t < t N : q i R i , < > ",
"u., & % #.N , w d & < o i v.% 6 q d i q t i : < + #.R % % i R 7 , b e 2 < & <.y o , d C y , d : : < % O.q X , d N q q N : < & q ",
"v.q q : i t 7 % * e N + N R w f : y d w + 7 i d o <.R i t < N i : , * 7.q : j.&.p , q ' d + < * <.7 < b.{ q % i N t : % < +.: i ",
"d N q : , : R i > A w 7 :.q O.q & , : R 7 7 N : 7 :.p w., : 7 d N , 2 A > i R g e.@ 7 5 a t : u t : N O.N N o : 7 d N % z j : -.",
"7 O.< 7 i 7 O.d * * : d _ t { @ y 7 7 <.i 7 : O Y d w c % p : y O.< < & 1 { q 7 l : C : g R = 1 % w R t d p t N : C N * 2 % q 3.",
"b d , p N i N X 3 o b T O i j 1 R i f y X % % b.y + N j q #.7 G t & : q t.i : T e N O.4 F y , * i #., q O.+ d R 7 =.: * % j <., ",
"i q % i , * % u : @.@.& $ N = = q w , % i & N O.& < p & w q q & : i < w.p < : p % u q , : , e e u.t & : w + i % 3 3 2 q p { q q ",
"x u e p < +.j % 1 p < < f.z 1 q t w p i % < R & p f.p , : i : N < & q p & p f.7 > 2 q q j 2 % i d % N O.q , q t h S , : d t & f.",
"i w : #.N p b : w i & : #.w q w w.i p O., 7 q % 7 O.t , 7 O.q d N < i 7 % t u.: u w 8.i N | < b % % N w., , i j.q +.q q i , % { ",
"{ i X d d : t N i w q p w p 7 & d q , q i t % 7 i d R : q d i % t d i : t d p N & < b < : i i w & N i N q + t N < q y T 7 7 d d ",
"<.p t < 7 N q t N 7 7 M f N q 7 q N b < d { i , O.i d , 7 t i b % d i 7 i { i R : p q w p , N q q R d t R 7 i % p y 4 f 8 w O.#.",
"q t w.N < b N 7 i N w q i , d R i : N y 7 y ' 7 d t , H i N ; 3.t 7 i R 7 t q 7 R R t < R 7 : d N , d , N { O.7 q ' : 7 f t w c ",
"q t i { q : R d q b i % 7 , i i 3., y O.q 7 i y + 7 7 R d <.+ t R : t N 7 ; q q O.f O.: i d , R b & q 7 t d R N + d 7 y R i * 0 ",
"<.q + t d 7 q i R , % % : O.7 & t i : y y N : 7 + 7 R , : N t : t i g ; 7 : i d & 7 d 6 7 7 _ f : < % N d : w p q q t O.i , > 3 ",
"%.& q & { b q : u % q % C R 6 < 7 R w 7 w w q q % O.C + : d C q : b & w q % v.t * o i O.d , u , < q 7 0.0 & % c x r e r % q < q ",
"M.N p % i i < : , p N X d 3.f b & i t 7 : < N i X -.N } , 7 N f * % q { < = b.<.| = w O.f O = 0 u.: q b.} p & q | i o $ u A : j ",
"q p q & : & N N 1 x 7 , C t N < % q % O.i q x $ w =.w u.O : 6 t D 1 q N o N f i | o , w f w : r w o D b N N o , < j z = q x o f.",
"i #.: i N q #.q # % , R g q -.$ f q i u.= , $ e -.w w b = M q f #., 7 o f N t y j 0 _ 7 f <.: % & w -.w N w 7 } = e.z : o , p | ",
"b b : p N q i % % = -.w O w i = C w w q o & 0 f.7 X i q 7 } t y q = , w 3., , C , z } 6 q t , % M { : < M & p c w x , * , j x , ",
"w : : q 7 , < < 1 x M + : y % < 7 i 7 & q & 0.p , q i % , q q 6 , q , a.q , 7 t @ q : : 7 O q i #.7 = , q = q % w , 0 : j | & i ",
"#.q q p d p d < = N & 7 c.R q e i y } i : , e : i b.i < q p i N w & w i = i s.7 1 q t y N 7 : r r % { b < r i i u x , : i , , f.",
"p i q #.{ q f.q j z & , f t 7 q 3.q q u.= N 0 % : f.7 w q { : N 0.& p w O f <.7 q , u.7 i O.: { = , i f.w % z b.q | z i z = = A ",
"%.w o t w 7 % R i : q O.7 N < & y y 7 % ' y % t ' , H : q i t : , w.: , N N 7 ' % 7 N % : 7 #.7 * { t p g X w i : : i g , 7 <.N ",
"R d q q q O.t , O.i , N N q q q 7 y _ y t N N & N g d , , d 7 ' + t R u q R i a 7 i w q R : i w q k R 7 y 7 N > d g , N t t i #.",
"7 d { b : d O.q q N w 7 t % R R d 7 N T , i O.w y q : N f ) : ..g + b A e t 7 8 O.<.p 7 <.7 7 N A ; y , g ..%.w 7 O., t d p < N ",
"i t t #.q & N t i i i & : q R t ' 7 , N t q t i + : 7 O.f g : 7 O.% i j e % 7 d N d R o q i q R x & , q d d N b o i w q R w < < ",
"w.: % i d 7 w t <.% : o q #., % q d : q d p 7 < o d C : : p g ; q N i 1 < + T y % : N 7 q t d i & q : N : % < b q 7 i { p & : q ",
"b., 7 & p N , < 7 , q o i u.: t 7 O.t 7 < 7 q q o <._ + 6 y O.t % i < i q % u.g 7 : w u.N o d , w q : l.y , : i O.q : i : u 1 q ",
"f.d i % t i , : + R { : R N d d % q 7 i : : A N + =.N f 7 : y C : : : { 1 : s.>.R , 7 R d o , % 7.< q l.' i & 0 J i % % 1 #.1 i ",
"q d 7 , w o N R < t % % f.< O.: , , q R w w x   w <.t 3.O : 7 7 R t t p X i :.7 R % t , i N : t < O R y y d & w : p c 1 k 1 X b.",
"p #.q i A i f.o * . < #.i i { , J t p { @ , @ j #.7 i N & O.w p N 2 & : R i 7 d i q +.q b +.# * : N p w { t i R q 8.u o o 1 b b ",
"[ q > u u u < , % i w.< + p i * N q i 7 < % u b.q X b q w R q w q & , p O., : N & N b < w w q , } N % t N % b N 1 i q : e b j * ",
"N q < q & t q < * j p : y i > 1 7 q p < * , A r 7 i t % < 7 q 7 2 & i N q , t 7 & w w : u & > p O.: , q , % 7 % < q & & i i q N ",
"p p t p N i u.& q e o i j.d q j p y p #.& r i @ i n.w q 7 N d N p : w t + y u.7 q : N w #.p % N q + <.R w t t d i { q : d : % b.",
"b w : N O., N q u i % y N t p , 3.q , R w q = 0 q d i q , #.: q J i 7 < , d T i 7 < O., p R t t + , i } i X t j.: N d d i % , N ",
"<.q + q w 7 : d N q q y q q q % p t y % R i < 0 ' q d : 7 i q q 7 O.p : y g 7 T % q d : < , R q : R i N i X q i , , t R 7 : R N ",
"R p t t q { t q { q q g d q q i t t :.7 N M c : O.t t , t t i O.& i d 7 q T y N w i i q R , i i 7 t g q y d i : R i q i i t N R ",
": g u.g , 7 <.7 w b : 7 8 , R #.:.X t j.: q } w , 7 t N T <.X ' %.O i :.: w w 7 u.T d o <.d : N O.% q 7 y 3.:.t % R t , ' i + d ",
"R 7 q N d o i p c i q & & g w q N C % d i i q w % O R i y T t , d w x e e % 7 g z t R : 4 w q { e r % f f w w _ & w 7 c c r 0 > ",
"#.; : 7 d q w q x < : X 6 } : : t i 7 6 N N & & + d y + % d f 6 7 N p : , = f 7 o % d y 7 q d N % = , f , & : d 7 6 i D q = * 0 ",
"n.7 7 : N R < % < & i & N u.+ i 7 d C = : : w N X l.N w : i } f = q 0 j e = s.g q : d 3.d & w & { 0 q b.M , 6 i =.6 < * < j , u ",
"w.d i % , 7 q t , D d & f O.M p : , q i q 7 } w + =.N O., , q f q & q @.q = j.3.@.% 6 d y : < q #.& w f.w.w O 7 i w 7 % N | * j ",
"q d q < q < #.b * p o w C 7 #.o q , 7 w.i 1 q o M f f M = q = i <.w q 1 * p d 7 x % w 7 f N = r = % O.p p N $ r = { b : 0 : , a.",
"N { < p b w b % * % w _ f i M = N i i f % $ & c C 6 f d , O.w f f : % , i { : a q i u.7 f O.@ & 6 d f q z r j { q { i o % < z N ",
"N u : q w 1 u * 1 u f.:   y , $ N q q : = , j f.& & w < < N w w 7 : 1 #.x q % T * r z % 7 w , q C d + 7 j % z e 0 w , % p { f : ",
"b q q 2 : q q q % j q w d i q r 0 < i r q % D q i N p : q 7 7 q 7 q , D 1 w C 7 , q , 7 w % q r N 6 i q w < 0 % q w q = N q : w.",
"R q q R R i j.+ y w * > c.g : N R w R w.% u q % 8 n.y : 7 #.t 8.N X N q o t N.- q q c i f.k * k , & { b.7 q q <.i f.q 1 b & * f.",
"i w % d R : d t a q * u y 8 : 2 3.y 7 w i i , q 8 y 7 7 7 N < : d p p % q i i 9 , q u.< 7 N p p + i 7 i q + d <., w p b q & u k ",
"<.t : 7 t q , i s w 2 { y y q * y d y % N J 7 , T y g , : i i t : N i # p O.q T + q d , 7 7 R 7 : { d i N + t 7 7 , y R 7 < { { ",
"b t p i , b i q y i e w d 7 d j 5 9 Y d 7 d d , T y d 7 q i q 3.7 , p p w N y f y d 7 7 O.6 7 w p q R q d i d : a T , 7 d t t O.",
"7 N N <.7 , O.t 7 N j : 7 : i | 5.+ 7 j.: 7 d i 7 : 7 T O.R + d R % i 8.q , 6 y 3.N g : ' i + _ R & i , p O.<.t ; T 7 7 f p ; i ",
"N t 7 d p % t d g i 1 , : f 7 1 =.i & d i N , t % q w i q =.7 ; i p p u 1 : 7 y q y <.: q i i R 7 q , t i 7 f g + 7 y R t q : : ",
"u.+ : : #.i : q g < % @ 4 *.: * , <.q : N { > 1 o R N % X y _ : , N i : q : C y o : N d w : { q & q % R q o : H d w w { < 1 > , ",
"n.< q + N i w + - : A > T ' : N q i N q * % e j & #.{ 7 y 7 G s : % , p k + j.` u o i w.{ % 1 : b q 7 M.d q + d A p @ * 1 j 2 u ",
"{ b w % , : q i , x i O M b D r : % q d i q A 1 & _ { 7.e $ q i u q w N = q s._ #.< : e k , < u N & N { #.p % : i i q % N x % A ",
"> #.q , t : R R , , % O.-.7 c $ q d , u.i q 2 # _ f w c % w q t f.q < < , f i : p * N q x 7.1 2 % : #.w i i & p > x +.< % : q k.",
"+.N , N N t O.X % * w R , p D , N i t p o % % +.d % q x < a.p d i & : % <.y 7 f w e t.q u | * % q b q q b q N #.i x e # % i x u ",
"k 1 7 < , 7 7 : , j f.: X N < , t < 7 , 7 & +.w.: : p q 2 i < , < r : #.N 7 % f & w q * 2 , 2 q #.b % 7 p % w < > 2 * & j [ u , ",
"N q i u < i t , 1 p q , -.p , u q 7 i q q : { & 7 <.d * q q q t w % < 0.= i -.6 1 w 2 q j , < w N & { t : w , , e k < : p q 2 f.",
"c q : #.R N <.: r p O 6 l.w < e O.d R { & q 2 * 7 j.q : i [ i N x @ N = + w s.: 2 < [ i b x 1 k : o %.#.2 q N #.i A u e k & % e.",
"w i & p p % 7 d j u < 6 w i 1 1 N i + t t w q * y N w , q c : , j c z , , f t i < q | 1 2 p i N : w w J i . N { % e i c u % q b ",
"b.i q p d R t N A i i s.d M i r N d #.7 w.N u p 3.t r.u i +.p N 1 @.w r } O.N R 1 b x q w p #.q w j.b p b q p i i k j | u p m.A "
};
