/* XPM */
static char *_89876de35f048808f1ad9af44dc77e3KoAoWVcd3elwTJIY[] = {
/* columns rows colors chars-per-pixel */
"64 64 221 2 ",
"   c #2F3C0A",
".  c #354D0A",
"X  c #3A4809",
"o  c #345C12",
"O  c #345312",
"+  c #2C4C0E",
"@  c #2C6404",
"#  c #326A06",
"$  c #356D0C",
"%  c #33650F",
"&  c #37710C",
"*  c #3A720E",
"=  c #366E11",
"-  c #386F11",
";  c #3B681B",
":  c #377011",
">  c #3C7414",
",  c #3F7912",
"<  c #3E7519",
"1  c #3F7819",
"2  c #455609",
"3  c #4D5508",
"4  c #535C07",
"5  c #5A6408",
"6  c #417A0F",
"7  c #57760D",
"8  c #426011",
"9  c #407714",
"0  c #427A15",
"q  c #4A7A12",
"w  c #40771A",
"e  c #447C1B",
"r  c #4A7E1A",
"t  c #497613",
"y  c #5A7914",
"u  c #506917",
"i  c #666704",
"p  c #64750B",
"a  c #767A06",
"s  c #627814",
"d  c #467D21",
"f  c #487F22",
"g  c #497727",
"h  c #847C00",
"j  c #478016",
"k  c #47801C",
"l  c #4A821D",
"z  c #4F881E",
"x  c #488317",
"c  c #568719",
"v  c #6A810B",
"b  c #7A8309",
"n  c #76940D",
"m  c #688815",
"M  c #7B8A14",
"N  c #68921D",
"B  c #7B9817",
"V  c #7EA41C",
"C  c #478021",
"Z  c #4C8423",
"A  c #4F8824",
"S  c #4E8629",
"D  c #4F882A",
"F  c #528A25",
"G  c #598E24",
"H  c #508629",
"J  c #548C2B",
"K  c #598F2C",
"L  c #558522",
"P  c #569025",
"I  c #589226",
"U  c #57902C",
"Y  c #5A922D",
"T  c #5E982D",
"R  c #4E8430",
"E  c #568E30",
"W  c #588F31",
"Q  c #568837",
"!  c #579032",
"~  c #5E9632",
"^  c #5E9636",
"/  c #5C9433",
"(  c #5F9834",
")  c #5E9638",
"_  c #5F9839",
"`  c #619B2F",
"'  c #679726",
"]  c #619633",
"[  c #619935",
"{  c #619A35",
"}  c #609739",
"|  c #659D3A",
" . c #649C3B",
".. c #699F3D",
"X. c #729C33",
"o. c #67A037",
"O. c #67A03C",
"+. c #69A23D",
"@. c #6CA53A",
"#. c #7FA030",
"$. c #7AA12D",
"%. c #679E40",
"&. c #689F41",
"*. c #67A041",
"=. c #6CA443",
"-. c #6FA64A",
";. c #6FA842",
":. c #72AA45",
">. c #73AB4A",
",. c #70A749",
"<. c #79B14E",
"1. c #7BB351",
"2. c #77AE50",
"3. c #8C8400",
"4. c #858A07",
"5. c #848807",
"6. c #938C01",
"7. c #988F00",
"8. c #83900F",
"9. c #9C9400",
"0. c #9E9B04",
"q. c #A49A00",
"w. c #AA9F00",
"e. c #8FA20A",
"r. c #97A50B",
"t. c #8DA413",
"y. c #84A319",
"u. c #96A711",
"i. c #ADA300",
"p. c #AEA903",
"a. c #B1A600",
"s. c #B4A900",
"d. c #BAAE00",
"f. c #A5B30C",
"g. c #BCB200",
"h. c #B4BB0C",
"j. c #A7B819",
"k. c #B4BA11",
"l. c #86A821",
"z. c #A2BE26",
"x. c #C2B600",
"c. c #C6BA00",
"v. c #CABE00",
"b. c #BCC213",
"n. c #CDC201",
"m. c #C3C709",
"M. c #D2C500",
"N. c #D6C900",
"B. c #DACD02",
"V. c #DBCE0A",
"C. c #D4C80C",
"Z. c #DED101",
"A. c #DDD20D",
"S. c #D7D108",
"D. c #DBCF1B",
"F. c #DED113",
"G. c #DAD61C",
"H. c #C3C719",
"J. c #E2D400",
"K. c #E5D800",
"L. c #EADB00",
"P. c #E2D50B",
"I. c #E7D90A",
"U. c #EADC0C",
"Y. c #EADC13",
"T. c #E1D51E",
"R. c #EADD1B",
"E. c #E4D71A",
"W. c #EFE101",
"Q. c #EFE20D",
"!. c #F2E400",
"~. c #F6E804",
"^. c #FFF100",
"/. c #EFE115",
"(. c #F6E918",
"). c #D6D12B",
"_. c #E2D523",
"`. c #E5D928",
"'. c #E1D532",
"]. c #E6D934",
"[. c #EADD34",
"{. c #E4D83B",
"}. c #EADE3E",
"|. c #EBE02D",
" X c #F5E826",
".X c #F3E733",
"XX c #80B952",
"oX c #E7DB49",
"OX c #EADF5B",
"+X c #EBE04B",
"@X c #EEE445",
"#X c #F5EA45",
"$X c #F3EB4D",
"%X c #EDE255",
"&X c #F1E655",
"*X c #F3EB53",
"=X c #F0E75A",
"-X c #F9F15D",
";X c #EFE862",
":X c #F5EC66",
">X c #F5ED6B",
",X c #F0E465",
"<X c #FCF366",
"1X c #F5EC7B",
"2X c #F6EA74",
"3X c #FBF476",
"4X c #F8EF84",
"5X c #FEF68A",
"6X c #FFFD9B",
"7X c #FDF598",
"8X c #FDFAA4",
"9X c #FFFEAE",
"0X c #F5F1A6",
"qX c #FEFDB5",
"wX c #FFFFBD",
"eX c #FFFFC3",
"rX c #FFFFCA",
"tX c #FFFFD4",
"yX c #FFFFDD",
"uX c #FFFFE1",
"iX c #FFFFF4",
/* pixels */
"K =.;.~ Z Y | F T ~ E H  .Z O.` { 9 [ =.A [ =.A ^ ^ U Y { Y 0 >./ Z ^ =.Z ^ ~ U { | K l >.F F T [ F } A [ :.O.Z J =.l T T [ f -.",
"0 Z Y | A e O.A l Y F Z d , T I { F Z Y Z Z / K e 0 0 { T ;.0 J | 0 E / H r * F O.Y [ 9 K F e T [ 0 e r Y [ ~ ^ w K r l U K Z f ",
"~ Z e F Y 0 F F [ F r < e Y l j J K 0 Z / J Z Z $ A F Z 9 | A r A F / e Z r F U l l ] 9 e J Y { r e e / F r F ~ 0 Z J [ J e d w ",
";.e , > ..~ e A Y , r $ J >.> k Z Y J Z F J 0 r * ..[ > > J [ l e ^ S d r , O.F $ e Y ( F e Y 0 0 r > | Z # e Y ~ Z Z ~ 0 r , Z ",
">.Z Z 0 J F l > < S / * / [ A Y 0 F J A * r J Y $ O.[ J F r ~ J 0 r < %.Z 0 :.o.K e Z | U * r < O.l r >.} Z > J ~ F 0 > r  .0 F ",
"Y ~ Z 0 e 0 [ J w ) A l O.Z  .Z , e 0 [ l l / 0 l O.K &.e 0 l U / r Z ) w J [ T =.= l x F F 0 H F 0 ~ | ~ ~ $ 0 l Y / > ! E 0 O.",
"l | r l J l | Y < < 0 Y { F } = F l k O.J l 0 & { U A ^ > K 0 F | r r , d } Z l ! 0 ( 0 T [ 1 d > A [ F K K F ~ 0 ( / < f > Z +.",
"^ Y e K / J / # g % ^ { & J E d [ J T F # > > >.F * / E Z ..l ` F , 0 Z =.F 0 { S / | j ` F e < F ..e Z | * Y [ l O.0 < > E O.e ",
"J Z > F e < > S 0  . ., : / 1 0 Z A e > F , ~ | , r K , A Z Z , 0 F r =.K r 0 K > S Z e 0 e S S ;.F , 0 A * J > g g f Z K } Z Z ",
"/ H S K r  .E > d J e e -.! d Z F A K F > r [ , K -.K e 0 F 0 / r , Z K , K -.k < f Z Z E f > F Y > / | Z e Z F R ) e 0 Y F , -.",
"J A 0 ../ K ^ 0 A J , 0 ..A Z A =.J K | e l Z > l | F e l | Z Y ~ r J l > F =.0 S Z =.H /  .r ^ > > ~ =.e e J :.Z  .Z Z J e > } ",
"} F # Y Y 0 F / F A Z K A Y k , Y Z e Z J F > l J Y [ 0 Z Y F > F Y J 0 F Y K / , r ^ r 0 K F A , ~ J ~ Z & F ~ r Z F { l l Y Y ",
"O.K F r l ~ Z F / l l [ Y / Z l Z ~ ^ r Y  .J e | J Y e l F J ^ > Y J l J } F [ 0 K Z A K e ~ Z Z [ Y F [ l J > K F j Y z A | ..",
"Z F =.~ r ^ ~ l J / A Z J e Y [ F 0 ~ F l F | l J F e ~ ' l.e.k.u.m G [ l F Z l [ [ F r [ l 0 U ~ e Y e ~ } | l Z | 0 l Y F A ^ ",
"Z F J } Z 0 [ Y Z ^ J > k e J J +.e F | Z l J F * u.b.S.Z.N.M.M.v.x.p.u.m q Z Z | ~ | 0 J U e [ ^ , Z l F Y [ / * Y l F [ F < C ",
"O.Z * F Y l Z J { k > > 0 { l , F J 0 F F ~ 0 c H.#XR.B.N.M.M.M.N.n.c.d.i.9.N Y , l Y k l l { Y 0 r > ~ Y 0 A K Z Z F | J e w g ",
"=., Z , } ^ Z 0 H > Z > ( [ k r l [ A l A A B ;X3X_.N.V.V.B.B.B.F.S.B.N.M.c.9.m < $ J | U r H e r C k O.C , > ^ / D S F > Z e Z ",
"1./ K > F F k 0 e K ~ # Y +.Y ^ , J F l 0 j.rXqXA.N.V.T.A.B.N.B.A.V.B.B.B.J.M.7.m 0 A | Y & 1 C =.0 Z >. .J , Z  .K % > H ) 1 E ",
"Z K Z , 0 , / / d / k e ( F ~ r > Z > | H.iX0XB.V.F.B.N.M.M.Z.L.K.B.N.B.T._.Z.B.9.5 e A Y A 0 D A $ _ ^ / / $ r e E ! 1 Z / % -.",
"F ..0 F / Z ..Z : > e ( Y Z O.= Y Z J z.eX4XB._._.N.v.n.M.g.9.a 3.x.K.!.S.F.A.B.Z.q.s l / O.0 > , D O.A / A k  .1 =.! 0 $ e J  .",
"^ ^ 0 K / Z J > > 1 O.A & A J 1 ( A A $X8XB.{.].N.c.c.4.8 g A F ; + 2 h K.L.V.F.B.L.h e Z F e > _ } 0 r _ , K ^ A / e < e E / e ",
"A 0 0 Z k e r r d / ( * 0 F > r l J f.3X|.T.'.N.g.i.t.> e Z Z e e Z e Q 3 K.!._.+XI.v.X l & Z F ..k 1 e Z 1 Z , A e C 0 E  ., H ",
"..Z Z K Y K Y r e ! , l >.[ Z S J '  X XE.oXN.x.q.#.J r Z K J / S , A F > X n.W.%X].!.3.H k 0 D A , } ^ e D D F H / e 0 J e e -.",
"K F Z ..} Z -.Z E ! , e Y F l Z O.m.(.P.,X_.v.i.y -.k A Z } 1 / *., K A & Y 3 n.Q.[.J.J.  | 0 } 1 e J -.Z > ! >.Z  .! J ! 1 1 ) ",
"O.A $ F A l > [ J 0 Z | l / r , V ~.K.&X2XM.s.4.| e ] 0 Z J A 0 e =.0 e / ~ r h W.}.T.W.9.o ..l w } F K T # A J 0 0 J T e l O./ ",
"[ Y Z A Z | F e | J e ~ ~ Z Z Z h.W.R.8X].x.9.q ~ T U e e Y l | * F } H Z [ J p x..X3XP.J.. J A Z W [ l F l / w U T e ~ F F F ..",
"l Y } ^ 0 Y | Z Z / A l F > [ [ m.L.&X5XM.i.M Z F Z 0 ~ Y { 0 | T * ^ ^ S F l c 6.J.6X:XL.2 l ~ ) 9 F e T ....A l | e A Y K r ~ ",
"J F F ..Z , ~ F J F J 0 0 Z [ F S.L.3X:Xv.9.L J * 0 l | Y T 0 l | > J E S > l U M c.<X3X!.i e [ / , e Z U Y / ^ $ J A Z [ A r r ",
"=.0 > J Y l A F O.> 0 $ Z ..e 0 L.L.6X=Xx.6.l r $ Y ~ 0 0 K T 9 Z / J d r * { F v x.#X3X!.h g J , Z e ~ 0 > r ^ Z l J } K , 0 Z ",
">.e l , K ~ e r l e Z $ J ;.0 N L.U.wX+Xd.5.Z Z $ +.{ * k F | F > J r F Z > ;.T m x.#X5XW.q.; e A Z 0 :.F e 0 F | A 0 J 0 H d Z ",
";.Y F > F J e 0 * [ } 0 [ / Y l.J.|.tX].s.a ) / & O.~ Y l 0 F ( 0 0 0 } d 0 ;.@.` x.|.eX Xg.. > *.r Z :.| J , C [ F > > d ..d F ",
"Z Y l e A $ ~ [ e F > > -.r | e.Z.&XtXF.w.s / @ A O.F +.& 0 l l [ F F K # J O.l [ g.I.eX*XN.2 F r & [ F F U , A 0 K ^ d W d # >.",
"K ..Z F ) J -.$ < @ r ..F F } f.B.>XtXV.q.y = E ..l J ~ , | A K / d , 0 [ J l Y K n.Y.eX#Xc.. , 0 / K A } F F [ Z &.H % $ d ^ ^ ",
"} Z w H H H r e > J =.r * K F n B.&XyX_.a.p H >.l # ^ Z A [ Z A Z , e K ..e 0 ~ c B..XrX(.i.o e } / > F / > ^ / d F Z 0 S ^ E < ",
"/ Z r Z , F Z r < E K 0 F J w m N.R.uX+Xd.a ^ D l J F > r l Z l f , F / Z r F l n J.*XeX~.6.o K | 0 e Z e > l > r Z , , J F Z / ",
"K K F K / J ;., S S $ J :.Y Z K n.J.rX1Xx.3.J $ J <.A Z l ~ Y ~ K 0 A A * F ;.l t.L.>X9X~.a % / Z * O.[ F F F Y J } Z 0 Y 0 > >.",
"^ A 0 ~ | e ~ Z H F , F ~ F K e h.B.6X8Xv.9.t Z Z Y F Z e ..0 l } F l r e U { J n.L.:X5X!.5 F F * e J } J # F :.0 / Y Y J > e ~ ",
"O.Z * Z A l 0 Y / Z Z F Z Z Z > r.N.<XwXN.q.7 l | Z Y 0 l J Z Z l | J 0 F T l l.Q.U.7X@X!.2 [ Z 0 [ J ~ J # Z J e e F [ l 0 [ ~ ",
"[ K F A Z } F Z } A Z T U Z Z J B v..XrX_.d.3.0 | F F e F F J | , J Y Z Z { F G. X*XqXL.v.O J F l F T Z F Y J 0 [ J Z J F F ~ [ ",
"e T ;.Y e l O.l A ^ 0 l z e [ ..$.c.L.9X8XM.a.a e l F ~ { O.# | O.* J O.0 A t.-X/.8X>X!.5 Y 0 ~ | > Z l F +.O.F > [ F e | J * Y ",
"[ l Z ~ T $ J J / F Z , , / A Z ~ r.N. XyX=Xc.9.7 & [ J F [ F e Y A / A S n 3X$XI.7XQ.v.o A Z } S D > Y Y A A | , A k / / D C w ",
".., 0 l Y Z A Z / r e # k  .0 0 F G d.J.-XqXD.d.6.N F * > U Y k k / K 0 t.2X-XJ.OX].~.5 l Z Y / > 1 e Y e , 0 U Z k J _ Z 1 < C ",
"<.l l 0 ~ [ r > r , J , ~ ;.* F l U B n.L.5X>Xv.s.6.8.G 0 J | Y , Z N j.*X#XZ.2XoXW.v.g U , A , } C Z >.( e k J O.k r < r E e H ",
"=.Y F > e l Z F e _ Y , Y | ( K 0 e Z 0.B.R.1XoXN.c.q.0.r.e.y.y.u.m.P.R.Y.N.1X2XJ.^.3 U F 0 r A .., A -.*.A & k J A k > /  .< E ",
"Z Y Z r Z r  .^ < J $ A ( l ..$ Z e k X.g.K.`.4X4X_.n.s.q.i.g.n.M.M.N.B.N.'.,XK.!.i d l Y ~ 1 D , > | K K / : D 1 } ^ 0 C 0 0 =.",
"/ } r K ^ A ^ > < : Z { Y J ( 1 ~ J F Y v c.J.Y.&X2X{.M.c.c.v.v.v.n._.oX'._.L.!.i g =.l Y | : > k U Y Z ! D E  .Z } F $ > r Y / ",
"/ H 0 Z A f H < d H =.0 @ F r > / Z Z 0 0 v a.B.K.R.}._.{.%X{.D.C.'.,X].P.W.!.5 ; D / > l A e Z ( Y * k E > ! S C A e > K } Y 0 ",
"^ Z Z f e Z Z Z > E Z A Y J Z D k r J D Z > ] 4.x.J.K.Y.[.[.`._.E._.I.L.!.N.4 k e Z e l A > Z D ~ k J Z A e Z > Z A Z 1 / Z 0 =.",
"[ Z Z [ [ J :.* F A < w >.T 0 / [ A [ =.> J Z > v q.n.Z.Z.J.K.K.L.L.N.q.4 O XX6 Z Z ^ F -.W < W e , } >.l Z Z O.J -.Z d ^ , < -.",
"F A > Y [ 0 Y F P Z < H F z 0 f +.F l A F F e Z z c v b 5.6.q.i.i.b u o Z J J z e Z ;.r l / K K * F l J Z * Y O.e A K ^ Z , H W ",
"O.F 0 l F Z e J I A f } F F Z < F U F > ~ [ l e { F T r q L y y 7 H J - K | Z { * Z Y e l l [ l 0 } Y J ~ * F l l e F [ l r } } ",
"^ A K J e ^ J Z F J S A U l Y E x z { U l Y U 0 { F Y l Z J Z ;.l e K K A / F Y F Y l l | k l A K Z [ Z Y J Y 0 P { e l U F F | ",
"l / ~ O.l e | F z / J 0 l 0 J  .@.* l :.0 l Y J l 0 l { | [ * Y [ , F =.Z e k F +.~ T 9 | J * { [ , F e K | O.F 9 { l l Y K 9 F ",
"/ F l Y K > F Y T F d e 0 Y l f O.J , Y J ~ e F > Z A J Z O.l 9 J J K H d 0 l F Z F O.0 Z J J { l Z e F J l Y Y * l F [ F Z 0 0 ",
";.* 0 0 ..J 0 Z T r > = k o.0 < e O.Z 0 / } w d $ [ ~ > # F { j e ~ J 0 Z 0 ( F $ 0 / Y A 0 [ Z , Z > [ Z $ 0 ~ Y A A } r d w e ",
"<.r Z * ~ J A * 6 0 ) w { | 0 / Z J / Z < > S E , ..} l F l T I 0 > e K W * :.{ H $ F =.} > d w ^ Z l 1.Y Z * U ) E = < d E f H ",
"} ^ A > e 0 Z J e / J & ( ^ _ D 0 > Z Y J Z ) d , { } %.S : Z J H Z A / , Z ;.{ ..e 0 S W e r H ~ , / } ..K > 0 H J Z > / / > ) ",
"w %.Z e F 0 [ [ e e > | O.k / : Z Y e ;.F Z f - { Y A / > S Z F -.Z r r e Y J 0 K < / Z / %.d f > 0 ..A F J , K < / ..r > 0 Z ,.",
" ./ e / / F | # > < A [ e K _ e ~ J F K $ > >  .U > Z / r =.K Y F , 0 > O.F l Y A S =.Z J  .< > Z ^ Z Z ^ Z / ..J / S - > J / H ",
"W d l r e l l 0 e E -.0 # / r e F r l e l ,  .=.0 0 K Z Z H r e r D 0 ..~ k > Y , A Z < f e Z Z ..^ > r K > A r w f < < E } H e ",
"/ A F H r F F e d K Z k O.K e H Z l J Z Z 0 } , l O.Y < Z Z Z F A > r *., J O.k f A f Z E e r A / , } A 0 A e e S W r 0 K Z d -.",
"^ Z 0 ..[ ~ O.0 D K : k >.A r S | Y [ } , Z f < l :.Z 0 J } J / / = / 1 * A :.0 f r } J ^ / d W 0 $ O...Z Z / ..J ) H S / , > =.",
"A H , K K , Z Y E H r k A D d d ~ F * F F A Z < F ~ A e Z ^ 0 e E / ! e e Y F J r Z  .d f E H / 0 A A [ F # / [ > S J ^ F > Z ) ",
">.H Z K Y [ F ~ ) F J ;.U _ D D ~ Y ..l =.^ H K +.F =.H H  .K / d  .A D  .| ~ [ d ^ / Z A J  .Z A :.^ K ^ Z K F H E E  .H K 2.) "
};
