/* XPM */
static char *_0a0b875849643fb816baeb01482ecbfKac0eoL6UV4NrwVW[] = {
/* columns rows colors chars-per-pixel */
"64 64 252 2 ",
"   c #3B241A",
".  c #3C2327",
"X  c #3D2C3A",
"o  c #321E1E",
"O  c #5B000A",
"+  c #5A0204",
"@  c #5B0011",
"#  c #6C010C",
"$  c #6A0304",
"%  c #730100",
"&  c #730E0C",
"*  c #790307",
"=  c #76100E",
"-  c #73160A",
";  c #761310",
":  c #771611",
">  c #6C0E0F",
",  c #4F2B1A",
"<  c #663C1B",
"1  c #713110",
"2  c #442A28",
"3  c #583629",
"4  c #493536",
"5  c #563A35",
"6  c #4E2F2C",
"7  c #662D2D",
"8  c #653A27",
"9  c #773D29",
"0  c #6A3935",
"q  c #743834",
"w  c #632C36",
"e  c #326A06",
"r  c #356D0C",
"t  c #3A720E",
"y  c #37710D",
"u  c #376E11",
"i  c #3C7414",
"p  c #3E7913",
"a  c #3E7519",
"s  c #3F7819",
"d  c #377011",
"f  c #2C6504",
"g  c #6C411D",
"h  c #427A16",
"j  c #40771A",
"k  c #447C1B",
"l  c #437A16",
"z  c #417A0F",
"x  c #564B31",
"c  c #674425",
"v  c #764527",
"b  c #754437",
"n  c #6A523B",
"m  c #705135",
"M  c #446A29",
"N  c #467D21",
"B  c #487F22",
"V  c #477627",
"C  c #4A6A35",
"Z  c #4E7335",
"A  c #54773A",
"S  c #526E3E",
"D  c #77643A",
"F  c #4D5942",
"G  c #515E48",
"H  c #5B5B5C",
"J  c #555555",
"K  c #544C4D",
"L  c #674443",
"P  c #794444",
"I  c #7B5E42",
"U  c #675C4A",
"Y  c #556747",
"T  c #5B7747",
"R  c #54634A",
"E  c #74634A",
"W  c #617D4D",
"Q  c #696852",
"!  c #565469",
"~  c #5D6F6F",
"^  c #586677",
"/  c #5D7373",
"(  c #656A62",
")  c #676A66",
"_  c #6D726A",
"`  c #636B75",
"'  c #677475",
"]  c #757574",
"[  c #7A7A7A",
"{  c #707E7E",
"}  c #880505",
"|  c #94060D",
" . c #AF0A11",
".. c #912F0D",
"X. c #89382E",
"o. c #AD3726",
"O. c #D6000B",
"+. c #FF0008",
"@. c #914C19",
"#. c #B05217",
"$. c #9B620D",
"%. c #A86F16",
"&. c #874628",
"*. c #974928",
"=. c #985627",
"-. c #8E542F",
";. c #A84C25",
":. c #A75933",
">. c #956734",
",. c #967735",
"<. c #8F6B35",
"1. c #A96D32",
"2. c #D05A07",
"3. c #DF6503",
"4. c #C56516",
"5. c #D5721A",
"6. c #E16604",
"7. c #E96B05",
"8. c #E6730C",
"9. c #FB7B09",
"0. c #E77412",
"q. c #F67E11",
"w. c #EB6F09",
"e. c #CB7327",
"r. c #936D48",
"t. c #945E56",
"y. c #F1504B",
"u. c #D16D4D",
"i. c #E85B5F",
"p. c #47801C",
"a. c #4A821D",
"s. c #4B841A",
"d. c #50891E",
"f. c #4C8423",
"g. c #4F8824",
"h. c #4E8629",
"j. c #4B8426",
"k. c #528A25",
"l. c #508729",
"z. c #548C2B",
"x. c #588F2C",
"c. c #508624",
"v. c #57902C",
"b. c #5A922D",
"n. c #599328",
"m. c #568E30",
"M. c #598D32",
"N. c #5A8A3A",
"B. c #579032",
"V. c #5C9433",
"C. c #5F9833",
"Z. c #5E9638",
"A. c #5F983A",
"S. c #4E8430",
"D. c #619B2F",
"F. c #619A35",
"G. c #649C3B",
"H. c #629838",
"J. c #67A03C",
"K. c #69A23E",
"L. c #69A238",
"P. c #638849",
"I. c #679E41",
"U. c #688355",
"Y. c #6C9151",
"T. c #6CA443",
"R. c #6FA648",
"E. c #72AA45",
"W. c #73AB4A",
"Q. c #70A749",
"!. c #79B14E",
"~. c #678160",
"^. c #B68718",
"/. c #BB9416",
"(. c #B59233",
"). c #BBA13D",
"_. c #D2911A",
"`. c #FD8608",
"'. c #FA8314",
"]. c #F1910F",
"[. c #D9AF15",
"{. c #FFA604",
"}. c #EAB516",
"|. c #EEBB17",
" X c #EAB618",
".X c #EABB19",
"XX c #F0BD13",
"oX c #EE8E2D",
"OX c #CDA62C",
"+X c #F2B026",
"@X c #FCC80A",
"#X c #F4C31B",
"$X c #FACA1D",
"%X c #F7C71A",
"&X c #FED31B",
"*X c #FED91A",
"=X c #F9D00E",
"-X c #FFE41C",
";X c #FFE50E",
":X c #FBCB23",
">X c #FED724",
",X c #EEC126",
"<X c #FEE623",
"1X c #FFF328",
"2X c #B5884A",
"3X c #B58F68",
"4X c #80B952",
"5X c #CB995C",
"6X c #FF8277",
"7X c #D9A667",
"8X c #ECB471",
"9X c #E89E51",
"0X c #FFCA78",
"qX c #FFE97E",
"wX c #374E97",
"eX c #1548B7",
"rX c #5D6680",
"tX c #68768B",
"yX c #697287",
"uX c #505796",
"iX c #0B4ECF",
"pX c #327DFC",
"aX c #1A61ED",
"sX c #DB7C81",
"dX c #768487",
"fX c #6E848C",
"gX c #308FFD",
"hX c #4A8DF9",
"jX c #70B2FD",
"kX c #6A9DD4",
"lX c #858687",
"zX c #899599",
"xX c #909594",
"cX c #ADA79A",
"vX c #8C9CAA",
"bX c #929BA8",
"nX c #98A9B7",
"mX c #97A7B2",
"MX c #ABB1AF",
"NX c #E0A097",
"BX c #FDD699",
"VX c #FBCC8B",
"CX c #FFE193",
"ZX c #FFE6A6",
"AX c #D3C7A4",
"SX c #9EB1C0",
"DX c #D9DCD7",
"FX c #CCCCC8",
"GX c #FEFEFE",
"HX c #F5F6F4",
"JX c #E9EBE8",
"KX c #DEE1DC",
/* pixels */
"x.T.T.V.f.b.G.c.b.V.m.l.G.f.L.D.F.z F.T.c.F.T.g.C.C.v.n.F.b.l W.V.f.C.T.f.C.V.v.F.F.x.a.W.k.c.b.F.c.G.g.F.E.K.f.z.T.a.b.b.F.B Q.",
"l f.b.G.g.k K.g.a.b.z.j.k h b.n.F.c.f.b.f.f.V.x.k l h F.b.T.l z.G.k m.V.l.k t c.J.b.F.h x.k.k b.F.h k k b.F.V.C.j x.k a.v.x.j.B ",
"V.f.k c.b.h c.z.F.c.k a k b.a.p.z.x.l f.V.z.f.f.r g.c.f.h G.g.k g.z.V.k j.k c.v.a.a.F.h k z.b.F.a.k k V.c.k c.V.l f.z.F.z.k N j ",
"T.k p p G.V.k g.b.p k r z.W.p p.f.b.z.a.c.z.l k t G.F.p p z.F.f.k C.h.B k p K.c.r k b.F.k.k b.l h k p G.f.e k b.V.f.f.V.h k p j.",
"W.f.f.h z.c.a.i a h.V.t V.F.g.b.h k.z.g.t k z.b.r K.F.z.c.k V.z.h k a I.f.l E.L.x.k f.F.v.t k a K.a.k W.H.f.p z.V.c.h i k G.l z.",
"b.V.f.h k h F.z.j Z.g.a.J.f.G.f.p k h F.a.a.V.l a.J.x.T.k l a.v.V.k f.Z.j z.F.C.T.u a.s.n.g.l l.c.h V.G.V.V.r l s.b.V.i B.m.l J.",
"a.G.k a.z.a.G.b.a a h b.F.c.H.u k.a.a.J.z.a.l d F.v.g.C.i x.l k.G.k k p N H.f.a.M.l C.h C.F.s N i g.F.c.x.x.c.V.h C.V.a N i f.K.",
"C.b.k x.V.z.V.e V r C.F.y z.m.N F.z.V.z.e p i W.k.t V.m.j.G.a.D.c.p l f.T.z.h F.h.V.G.p.D.k.k a z.G.k f.G.t b.F.s.J.l a i m.K.k ",
"z.f.i z.k a i l.l G.G.p d V.s l f.g.k i z.p C.G.p k x.p g.f.f.M T T k T.x.k l x.i l.f.k l k h.h.T.c.p h g.t z.p V V N f.x.H.j.j.",
"V.l.h.x.k G.m.i N x.k k R.B.N j.c.g.x.z.i k H.p x.R.x.k l z.l T xX_ f.x.p x.R.a.j B f.f.m.B i z.b.p V.G.f.k f.c.S.Z.k l b.c.p R.",
"z.g.l G.V.x.C.l g.z.p l G.g.f.g.T.z.x.G.k a.f.i a.G.c.k a.G.f.F lX) z.a.i c.T.l l.j.I.z.V.G.k C.p i V.T.k k z.E.f.G.f.f.z.k i H.",
"H.z.e b.b.h c.V.z.g.f.x.g.b.a.p b.f.k j.z.l.p f.z.x.H.N j.M.z.C _ Q M.k l.M.M.M.a V M.V V M.M.l.p V.z.V.f.t c.V.k f.c.F.a.a.b.b.",
"K.x.c.k a.V.f.c.V.a.a.C.b.V.f.a.Z cXDXDXDXDXDXDXKXJXHXHXHXHXHXHXGXHXGXGXGXGXGXGXGXGXGXGXGXGXGXJXU.F.b.c.F.a.z.p x.c.p.n.s.g.G.G.",
"f.c.T.V.k C.V.a.z.V.g.f.z.k b.N._ MXmXvXvXvXvXvXvXvXmXmXmXbXzXbXzXzXbXbXnXnXnXnXnXnXnXSXnXmXmXGXHXM b.k V.H.G.a.f.F.l s.n.c.g.C.",
"f.c.z.H.f.h F.b.f.C.z.i a.k z.A ] ` 4 c c c c c c c c c < c E E E E E n , < c < g g < < < <   { FXT f.a.c.b.F.V.t b.a.c.F.z.a j.",
"K.f.t c.b.a.f.v.F.p.i i h G.a.Z ` K 2.7.3.3.3.3.3.3.3.3.oX0XBXZXZXZXZXZX9X2.6.6.6.6.3.3.6.7.3.n zXT p V.b.h g.x.f.f.c.G.z.k j V ",
"K.p f.p H.C.f.l l.i f.p C.F.p.Z ^ D 7.8.0.0.8.8.8.0.6.5.8XVXVXBXBXBXBXBXZXoX3.0.0.0.0.8.8.8.7.-.fXT k G.f.p i C.V.l.g.z.i f.k j.",
"!.V.x.i z.z.a.l k x.V.r b.K.b.A ^ I 9.`.q.'.'.q.0.q.w.5X8X8XVXBXBXBXBXBXBXVX0.w.0.q.q.q.q.q.9.>.fXT f.W.G.x.p f.G.x.r i l.Z.s m.",
"f.x.f.p l p V.V.N V.a.k C.c.V.Z ^ r.4.&.;.#.4.0.'.9.e.3X7X8X0XCXBXCXCXVXVXBX9X7.q.0.4.#.#.*.4.>.fXS A.C.V.V.r k k m.B.s j.V.r R.",
"z.G.l z.V.f.G.f.d i k F.b.f.J.M ^ <.8.b 4 8 q *.5.'.1.3X9XcXkXAXqXAXkXMX0XVX8X'.5.;.X.X.7 v 8.>.fXW J.g.V.g.a.G.s T.B.l r k x.G.",
"C.C.l x.V.f.z.i i s J.g.y g.z.M ^ I `.`.=.5 b &.*.1.r.2X3XjXgXhXAXjXgXgX8X0X7X1.;.*.*.q =.`.`.>.tXU.l k C.i x.V.j.V.k a k m.V.k ",
"g.l l f.a.k k k N V.C.t l k.p C ^ I `.`.e.0 8 &.-.*.&.1.yXpXhXgXkXpXhXaXcX9X:.;.:.*.9 9 4.`.`.>.tXT l k f.s f.p g.k f.k m.G.p l.",
"G.f.f.x.b.x.b.k k B.p a.W.F.f.Z ^ <.`.-.4 5 c 9 9 &.*.@.! iXaXaXuXeXaXaXlX4.;.=.&.X.&.-.b :.`.1.tXT H.C.k l.l.z.l.V.l l z.k k R.",
"x.z.f.G.H.f.R.f.m.B.p k b.c.a.S ` I v X 5 5 4 3 8 9 &.;.-.wXiXwXi.wXiXwX-.;.*.*.&.9 v v q 0 *.m dXT z.R.j.i B.W.f.H.B.z.B.s s Z.",
"G.g.r c.g.a.p F.z.h f.G.a.V.k C ` U v 3 4 5 8 3 6 3 9 *.:.b ! i.6XsX! 9 :.:.&.v 9 < 8 8 3 3 @.n dXU.c.x.b.e g.z.h h z.b.k a.K.V.",
"H.b.f.f.f.G.c.k G.z.k V.V.f.f.Z ^ <.].].%.5 8 c 3 2 2 3 v g ..y.NX6Xo.1 v 8 , 2 3 < 8 3 %.].{.,.tXU.F.a.c.a.V.h v.b.k V.c.c.z.K.",
"a.b.H.C.l b.G.f.f.V.g.a.c.p F.T ^ E {.{.>.5 6 2 2 . 2       , o.i.y., o     . . . . 6 3 =.].{.<.tXT z.k b.G.G.g.a.G.k g.b.x.a.V.",
"z.c.c.G.f.p V.c.z.z.z.h l f.F.A ^ D {.>.X 4 2 6 -.-.. 2 n m D :.o.u.2Xr.r.n 2 v -.6 . 3 0 =.{.,.tXT k f.v.b.V.H.r z.g.f.F.g.k k ",
"T.h p z.b.a.g.c.K.p h r f.G.k C ^ ,._.4 X c %._. X:XOXm x n m r.2X5X5X3Xr.>.OX:X,X[.^.v 6 w _.(.tXT h V.h p k C.f.a.z.H.x.p l f.",
"W.k a.p x.V.k k a.k f.r z.T.p A ^ ,.m 3 ^. X&X:X:X:X<X>X/.,.<.<.D ,.(.(.OX>X1X>X>X>X<X>XOXm v ,.tXW h W.k.k l z.G.g.l z.l l.N j.",
"T.b.z.i c.z.k h t F.H.h F.V.b.T ` U | ].-X&X:X$X%X%X%X&X*X*X-X5. .4.-X*X-X&X:X:X$X$X$X>X1X+X .n dXT f.W.F.z.p f.F.z.i i N G.N l.",
"f.b.a.k g.r V.F.k c.p p R.k G.C / L  .0.<X#X#X#X#X#X|.|.}.*X/.* O.} /.-X#X#X:X%X%X$X%X#X<XoX+.X.fXT F.z.c.v.p g.l x.V.N M.N e W.",
"x.G.f.z.Z.z.R.r a f k G.z.z.H.C / L | #.&X|.|.|. X}.}.}.%X.X> $ & # + [.&X|.#X#X#X#X#X%X-X5.O.X.fXU.x.g.F.c.z.F.f.I.l.r r N C.C.",
"H.j.j l.l.l.k k i z.T.k t x.z.C ~ L | ..#X|.}.}.}.}. X|.&X..O & > & O 1 &X%X|.|.|.|.|.#X>X#.| q fXW i c.b.i C.V.N z.f.l h.C.m.a ",
"V.f.k f.p c.f.k a m.x.h c.z.j Z ~ L } & [.$X}.}. X X}.&X^.O & & & & & + %.*X|.|.|.|.|.%X#X..} 7 fXT k f.k i a.i k f.p p z.z.f.V.",
"x.x.c.x.V.z.T.p h.h.r z.E.b.j.T ~ L } # %.&X X X X X#X.X: # = & & & & # > }.$X|.|.|.|.&X_.* } 7 fXS K.F.c.c.c.b.z.H.f.l b.l p W.",
"C.g.h V.G.k V.f.l.c.p c.V.z.x.C ' L } # @.&X}. X X X&X%.O ; = = & & & = O $.*X|.|.|.|.*X#.# } 7 dXT z.F.z.e c.E.h V.b.b.z.p k V.",
"K.f.t f.g.a.h b.V.f.f.z.f.f.f.C ' n * = - }.#X X X#X.X: # = = = = = = = # > [.$X|.|.#X%X1 # } 7 dXU.z.b.v.e f.z.k k c.F.a.h F.V.",
"F.x.c.c.f.H.c.f.H.f.a.b.v.f.f.Y ' 5 * ; O ^.&X X X&X%.@ ; ; ; ; ; ; ; ; : O $.*X|.|.&X_.# = } 7 dXT b.f.z.b.z.h F.z.f.z.z.c.V.F.",
"l b.T.b.p.a.K.a.g.C.l a.d.k F.T ' K % % + ..=X@X@X@X- $ * % % % $ % % % % % $ XX=X@X;X$.+ % % 5 dXY f.a.z.K.J.c.p F.c.k F.z.t b.",
"F.a.f.V.b.r z.b.V.z.f.h h b.c.C ) ) P q 0 b (.).OX,.w 0 q P P t.t.t.t.P P P w ,.OX).).b w q 0 ( ] Y i b.b.g.g.F.p g.a.V.V.h.j.j ",
"G.p h a.b.f.g.f.V.k h e p.G.h M J ) { dXdXdXyXyXrX` dX~.dXlXzXbXmXmXzXzXzXzXdX` rXrXrXdXdXdXdX_ ( M k b.k p h v.a.p.z.A.f.s a j.",
"!.a.a.h V.F.k p k p z.p b.T.t z.G H H H H H H H H H H H H H H H K J J H H H H H H H H H H H H H R N f.W.C.k k z.J.p.k p k m.k l.",
"T.b.z.p k a.f.c.k A.b.p b.G.C.x.h V A A Z Z P.A M P.N.P.Z Z A T J G A P.A Z Y.P.P.C A N.A Z Z Z G.p g.R.T.g.d a.z.g.a.i B.G.a m.",
"f.b.f.k f.k G.C.a z.r g.C.a.G.r f.k a.T.z.N j.r C.b.b.C.p f.p A xXT f.N a x.z.s.V.i g.a.b.V.s l.p p G.x.x.V.d l.s H.C.l f.l l T.",
"V.H.k x.C.g.C.i a d j.F.b.v.C.s V.z.z.b.i d p V.C.k b.x.p.G.g.R lX_ p k z.H.h n.j.z.T.a.b.G.d p p.v.b.f.B.l.m.H.f.H.z.r i k b.V.",
"V.l.l f.g.B l.a N l.R.h f k.k i V.j.f.l s k m.R.p p l.k a.V.g.R ] ) N I.V.f.i C.a l.V.p f.g.k f.C.b.t a.m.i B.h.f.g.k i b.H.b.l ",
"C.f.f.B l f.j.f.i m.f.g.b.v.f.l.f.k z.l.f.i A.f.z.V.x.l f.a.a.G [ ) k A.N g.C.p.k f.k a.g.i f.l.V.p.z.f.g.k f.i f.g.f.s V.f.h T.",
"F.f.f.F.F.z.E.t k.g.a j W.n.h V.F.c.F.T.i l.f.i d.!.d.l a.J.c.R [ ) V.f.r c.4Xz j.f.Z.z.R.M.a M.k p H.W.a.f.f.K.z.R.f.N C.p a R.",
"z.g.p b.F.h b.c.n.f.a l.k.d.h B K.f.a.g.z.z.l f.s.z.a.a.a.b.k F [ _ x.i j.z.z.d.k a.T.k a.V.x.x.t z.a.z.f.t b.K.k g.x.C.f.p l.M.",
"K.c.h a.c.f.k z.n.g.B H.z.k.f.a c.v.z.p V.F.a.k F.z.b.k l z.z.G [ _ z.i x.G.f.F.t f.b.k a.a.F.a.h H.b.z.V.t c.a.a.k c.F.a.k H.H.",
"V.c.x.z.k C.z.f.c.z.h.g.v.s.b.m.s.d.F.v.a.b.v.l F.z.b.a.f.z.f.R ] ( x.x.g.V.c.n.z.b.a.a.G.p.a.g.x.f.F.f.b.z.b.h n.F.k a.v.c.c.G.",
"a.V.V.K.a.k G.c.a.V.z.l a.h z.G.K.t a.E.h a.b.z.a.h a.F.G.F.t R ] ( z.T.f.k p.k.K.V.b.h F.z.t F.F.p z.k x.G.K.c.h F.a.a.b.x.h z.",
"V.c.a.b.x.p c.b.n.z.N k l n.a.N J.z.p b.z.V.k c.i a.f.z.f.J.a.F ] ( x.z.N h a.k.f.z.J.h f.z.z.F.a.f.k c.z.a.b.b.t a.z.F.c.f.l l ",
"T.t h h G.z.l f.C.k i u p.L.h j k K.f.h V.H.j N r F.V.p e z.F.F ] ) z.l f.l C.k.r l V.b.g.l F.f.p f.i F.f.r h V.b.g.g.F.N k j k ",
"!.k f.t V.z.g.t z l Z.j F.F.h V.f.z.V.f.a i h.m.i G.H.a.c.a.D.R [ ( k x.M.t E.F.l.r z.T.H.i N l C.f.a.!.b.f.t v.Z.x.u a N m.N l.",
"H.C.g.p k h f.z.k V.z.y C.C.H.h.h p f.b.z.f.Z.N p F.H.I.h.d f.G [ ) g.V.p f.T.F.G.k l h.M.k k l.V.p V.H.G.x.p l z.z.f.i V.V.u Z.",
"j I.f.k c.h F.F.k k i G.J.a.V.d f.b.k T.z.f.B u F.b.g.V.i h.f.R [ ( k k k b.z.h x.a V.f.V.I.k B p l G.g.z.z.p x.j V.G.k i l f.Q.",
"G.V.k V.V.c.G.e i a g.F.k x.A.k V.z.c.b.r i i G.v.p f.V.k T.x.G ] ( l i K.c.a.b.g.h.T.f.z.G.a i f.C.f.f.C.f.V.G.z.V.h.u i z.V.z.",
"M.N a.k k a.a.h k m.R.h e V.k k c.k a.k k p G.T.l h x.f.B z.k F ] ( l G.V.a.p b.p g.f.a B k B j.G.C.i k x.i g.k j B a a m.H.z.k ",
"V.j.z.c.k c.c.k N x.f.p.J.x.k l.f.a.z.f.f.l H.p a.K.b.a j.f.f.G ] ( k G.p z.J.p.B g.B f.m.k k g.V.p H.z.l g.l l h.M.k l x.j.B R.",
"Z.f.l G.F.V.K.h h.x.d p.W.g.k h.G.b.F.G.p f.B a a.E.f.l z.H.z.R ] ( V.l t g.E.h f.k H.z.Z.V.N M.l r G.G.f.f.V.G.x.Z.l.h.M.p i T.",
"g.z.p x.x.p a.b.m.l.k p.g.z.N N V.z.t c.c.g.f.a c.V.g.k j.Z.l M W T V.k k b.c.z.k f.G.N B x.z.V.l g.g.F.z.e V.F.i h.z.Z.l.i f.C.",
"W.z.f.x.b.F.c.V.Z.z.z.T.v.C.z.h.V.b.G.a.T.C.l.x.K.c.T.l.z.G.x.V.N G.g.g.G.G.C.F.N C.V.f.g.z.G.f.g.W.C.x.C.f.x.z.z.m.m.G.l.x.!.Z."
};
