/* XPM */
static char *a97a109890f24fb884521daceb4fc6d9uQlUTJgmcP5fu31r[] = {
/* columns rows colors chars-per-pixel */
"64 64 240 2 ",
"   c #1D2A3B",
".  c #263831",
"X  c #192F12",
"o  c #573819",
"O  c #782D17",
"+  c #2C590C",
"@  c #294A1A",
"#  c #2D5615",
"$  c #325918",
"%  c #32460D",
"&  c #326A06",
"*  c #346D0C",
"=  c #3A720E",
"-  c #37710E",
";  c #396D13",
":  c #3A631C",
">  c #3D6C1B",
",  c #356713",
"<  c #3C7414",
"1  c #3F7913",
"2  c #3E7519",
"3  c #3F7819",
"4  c #377011",
"5  c #2C6305",
"6  c #2A4928",
"7  c #365826",
"8  c #2C4836",
"9  c #314D34",
"0  c #365437",
"q  c #304F2F",
"w  c #3C6422",
"e  c #3C622B",
"r  c #3F6237",
"t  c #474B19",
"y  c #4B531C",
"u  c #427A16",
"i  c #40761A",
"p  c #447C1B",
"a  c #437A16",
"s  c #417A0F",
"d  c #49582C",
"f  c #436B27",
"g  c #457323",
"h  c #467D22",
"j  c #497E23",
"k  c #47712A",
"l  c #4D7C2A",
"z  c #49752A",
"x  c #517C2C",
"c  c #476737",
"v  c #507A38",
"b  c #293B4B",
"n  c #2B3C57",
"m  c #232F51",
"M  c #0D156C",
"N  c #1D237F",
"B  c #2B3969",
"V  c #242A76",
"C  c #2D3B74",
"Z  c #2D3A7A",
"A  c #303E7B",
"S  c #2C3967",
"D  c #1B1F4F",
"F  c #742049",
"G  c #2C4448",
"H  c #334B48",
"J  c #395346",
"K  c #2E4356",
"L  c #334857",
"P  c #39515C",
"I  c #2F4465",
"U  c #314369",
"Y  c #334374",
"T  c #32427A",
"R  c #2F4271",
"E  c #576C47",
"W  c #647756",
"Q  c #545570",
"!  c #882719",
"~  c #8C2616",
"^  c #A9241F",
"/  c #A61B20",
"(  c #F71812",
")  c #C61C2A",
"_  c #EC1C24",
"`  c #E41D25",
"'  c #FE1F26",
"]  c #F51D26",
"[  c #FF212A",
"{  c #FF2530",
"}  c #CF1515",
"|  c #902D6B",
" . c #47811C",
".. c #4A821D",
"X. c #4A8419",
"o. c #50891E",
"O. c #478021",
"+. c #4C8423",
"@. c #4F8825",
"#. c #4E8529",
"$. c #4F882A",
"%. c #528A25",
"&. c #51862B",
"*. c #548C2B",
"=. c #588E2D",
"-. c #508623",
";. c #57902B",
":. c #5A922D",
">. c #5A9328",
",. c #568E30",
"<. c #598E32",
"1. c #558836",
"2. c #579032",
"3. c #5C9433",
"4. c #5F9833",
"5. c #5E9639",
"6. c #5F983A",
"7. c #4E8430",
"8. c #619B2E",
"9. c #619A35",
"0. c #649C3B",
"q. c #639939",
"w. c #67A03C",
"e. c #69A23E",
"r. c #6AA339",
"t. c #679E41",
"y. c #6CA443",
"u. c #6DA647",
"i. c #71AA45",
"p. c #73AB4A",
"a. c #70A749",
"s. c #79B14E",
"d. c #75846A",
"f. c #848D7D",
"g. c #AEA77D",
"h. c #91AC64",
"j. c #DACD76",
"k. c #121988",
"l. c #292E84",
"z. c #2C338C",
"x. c #2D3686",
"c. c #323E8B",
"v. c #2D3494",
"b. c #2F3699",
"n. c #30379C",
"m. c #323A9D",
"M. c #323C93",
"N. c #232B9F",
"B. c #1019AE",
"V. c #1C26AC",
"C. c #1C26B6",
"Z. c #232CA9",
"A. c #333BA4",
"S. c #353CAB",
"D. c #222BB5",
"F. c #2B35B4",
"G. c #373FB2",
"H. c #363EB9",
"J. c #2831AC",
"K. c #17209E",
"L. c #354289",
"P. c #364299",
"I. c #2B4293",
"U. c #3942A7",
"Y. c #3941B5",
"T. c #3A42BB",
"R. c #585B98",
"E. c #494D9B",
"W. c #6B6D95",
"Q. c #757594",
"!. c #71718A",
"~. c #494FAF",
"^. c #7577AB",
"/. c #6C70B1",
"(. c #1925C6",
"). c #1F2BD1",
"_. c #2B35CA",
"`. c #2935D7",
"'. c #323DDA",
"]. c #212CCF",
"[. c #2C39E6",
"{. c #0D1AD5",
"}. c #1746CE",
"|. c #3C45C4",
" X c #3E47C9",
".X c #3F48CC",
"XX c #3D48C1",
"oX c #3F49D4",
"OX c #3A45DB",
"+X c #3A44D8",
"@X c #2D4BD8",
"#X c #3849F2",
"$X c #4149CD",
"%X c #414BD3",
"&X c #434DDB",
"*X c #4750D1",
"=X c #454FE1",
"-X c #4651E5",
";X c #4953EC",
":X c #4852E8",
">X c #4B56F3",
",X c #4E59FD",
"<X c #4B58F9",
"1X c #515DFF",
"2X c #5662FF",
"3X c #5965FF",
"4X c #96998D",
"5X c #8A8796",
"6X c #8E8E8A",
"7X c #9CA09F",
"8X c #AAA68A",
"9X c #B4AF91",
"0X c #9091AD",
"qX c #A7A8B0",
"wX c #A19C91",
"eX c #C5BC92",
"rX c #C0BFAE",
"tX c #BEC1B9",
"yX c #D6CB87",
"uX c #D3C991",
"iX c #DDD39A",
"pX c #CCC68D",
"aX c #E6DB95",
"sX c #F7EA99",
"dX c #FFF892",
"fX c #EEE2AF",
"gX c #FEFCA6",
"hX c #EFE4B0",
"jX c #F4E8B4",
"kX c #FFFFB2",
"lX c #FFFDBB",
"zX c #FDF4BA",
"xX c #C2C1AD",
"cX c #9FA1C1",
"vX c #AEB0C9",
"bX c #C6C7D2",
"nX c #EFEDCC",
"mX c #FFFFFF",
"MX c #FFFFF6",
"NX c #EDECE5",
/* pixels */
"=.y.y.3.+.:.0.%.:.3.,.&.0.+.r.8.9.s 9.y.-.9.y.@.4.4.*.>.9.:.a a.3.+.4.y.+.4.3.>.9.9.=...p.%.%.:.9.%.0.@.9.i.e.+.*.y...:.:.9.j a.",
"a +.:.0.@.p e.@...:.*.+.p u :.>.9.%.+.:.+.+.3.=.p a u 9.:.y.a *.0.p ,.3.&.p = %.e.:.9.a =.%.p :.9.u p p :.9.3.9.i =.p ..>.=.+.j ",
"3.+.p %.:.u %.*.9.%.p 2 p :... .*.=.a +.l 0 8 8 6 7 7 > ; 0.@.p @.*.3.p +.p %.>.....9.u p *.:.9.p p p 3.%.p %.3.a +.*.9.*.p h i ",
"y.p 1 < 0.3.p @.3.1 p * *.p.<  .+.:.%.q Y T.T.T.T.G.A.A n e &.+.p 4.#.j p 1 e.%.* p :.4.%.p :.a u p < 0.+.& p :.3.+.+.3.u p 1 +.",
"p.+.+.u *.%...< 2 #.3.= 3.9.@.:.a 0 |.1X2X>X&X&X&X=X:X;X<X%X|.L.8 > 2 t.+.a i.r.=.p +.9.>.= p 2 e...p a.q.+.< *.3.%.a < p 0.a *.",
":.3.+.u p u 9.*.i 5.@...w.+.q.g   b.T U x.T.:X;X%X X.X.X X%X=X<X1X|.7 5.i *.9.8.y.4 ..X.>.@.a &.%.u 3.0.3.3.* a X.:.3.4 2.,.a w.",
"..0.p ..*...0.:.2 2 3 :.9.%.q., g ....w.%.> 6 A &X>X.X.X&X%XT.S.G.&Xz.+ : 7 6 , <.a 4.u 4.9.3 h < @.9.%.=.=.%.3.u 4.3.2 h 4 ..e.",
"4.:.p =.3.*.3.& h * 4.9.= *.<.h 9.*.3.%.& < < p.7 A >X&XS.A.b.m.T.A.G.T..X X:Xx.9 f 9.X.8.%.p 2 *.0.p +.0.= :.9.X.w.a 2 4 ,.e.p ",
"*.+.< *.p 2 < &.a 0.0.1 4 3.3 a +.@.p < *.1 3.0.1 i L.S.A.|.&X&X%X&X&X&X&X&X%X:X:X|.U.n $ p #.#.y.%.1 u @.= *.< z h h +.=.q.+.+.",
"3.&.#.=.p 0.,.< h =.p p 1.J S S I K G 9 # > 4.1 =.u.: v.:X%X.XoXOX&X$X$X$X$XoX%X%X&X:X,XT.: < *.:.< 3.0.+.p +.%.7.5.p a 3.%.1 u.",
"*.@.a 0.3.=.4.a @.*.1 b &X>X>X;X;X>X;X:X%X|.P.G i 0.Y >X.X%X'.D.k.k.`.:X_.C.V.V.C.C.oX$X1XS p 4.< < 3.y.p p *.i.+.0.+.+.*.p < q.",
"q.*.& :.:.u %.3.*.@.9 3X1X;X:X:X&X&X%X%X%X&X:X,Xz.m :X%X%X_.m.qXxXqX/.l.^.cXvXvXbXcXZ.+X;Xx.*.@.< 3.*.3.+.= %.3.p +.%.9.....:.:.",
"e.=.%.p ..3.+.%.3. .C Y.S I Y T P.Y. X-X>X;X&X&X|.G.&X X'.U.nXmXmXg.4Xk.0XmXmXmXrX9XqXC.<XC 3.+.+.9.:.%.9...*.< =.%. .>.X.@.0.0.",
"+.%.y.3.p 4.3...*.3.j +.*.p l k 7 @ 7 w K L.T.:X:X|.&X.XB.0XmXmXnXQ K.#XB.qXmXmX7XqXMXM.#Xc.a >.3.p :.p 3.q.0...+.0.a X.>.%.@.3.",
"+.%.*.q.+.u 9.:.+.3.g 6 G M.Y.|.|.|.P.k +...+.7 G B T.:X_./.qX0XA.].&X$X[.F.7XMXmXMX/.H.;XA.< 9.4.< +...%.:.9.3.= :...%.9.*.2 #.",
"e.+.= %.:...+.7 T |.<X2X1X1X>X-X&X%X:X:XU k u ..= ..q &X-X_.V.(.OX%X:XD   OXV.R.^.~.(.%X>XM.9.:.a p < 3.:.u @.=.+.+.%.0.*.p i h ",
"e.1 +.1 q.4.j @ K R I C c.M.Y.%X:X;X;X>X,X&XA.K # 0.4.n ,X X%X.X$X+X[.M D `.[.{.B.(.*X.X;XG &.p p +. .0.O.1 < 4.3.*.#.*.4 +.p +.",
"s.3.=.< *.*...a p =.3.* :.w.+.f 6 H L x. X>X1X1X:XL.k &.XX<X X.X+X~.W.^./.W.Q.5X8XQ J.=X%X+ 3 O.y.a +.a.0.*.1 +.0.,.* 4 &.5.3 ,.",
"+.=.+.1 a 1 3.7 9 c > a 4.%.3.p < +.< 0.g 9 L. X>X1X:XP X P.,X&X(.6XdXaXaXsXsXsXkXyXZ.,XA.h a $.@.* 6.4.3.3.* p p ,.2.3 +.3.* u.",
"*.0.a *.3.+.0.7 b z.|..X|.Y P 8 7 > *.y.3 p 4 f J G.<X3XY.. H %X#X~.pXaXiXiXiXyXyX!.#XoXf e.a 4 1 $.w.@.3.@. .0.3 y.2.a * p =.0.",
"4.4.a =.3.+.*.< 4 3 v H U.%X<X2X1X%XP.G + 1 O.u...5 0 K =X<X7 +.n C.x.g.uXg.Q.^.R._.U.@ +.%.p 2 6.q.a p 6.1 =.4.@.3.p 2 p ,.3.p ",
"@.a a +...p p p h 3.6.= a +.# q A &X1X2X:XR v =.p +.*.< ; 0 S.q C $XF.K.F.M $ w @ w u u ..- +.*.0.O.3 p +.3 +.1 @.p O.a ,.0.1 &.",
"0.+.+.=.:.=.:.p p 2.1 ..p.9.+.#.*.j c H L.<X&X6 =.a.*.p +.=.*.m .X-X>X&X>XT.u...h +.%.%.3. .a $.@.1 q.4.p $.$.*.&.3.a a *.p p u.",
"=.*.+.0.q.+.u.+.,.2.1 p :.%...+.0.+.+.y.; w . =Xn y. .@.+.q.; 8 T.z.l..X:XM.1...+.p y.+.*.0.a q.a p *.u.+.+ e v : 6.2.*.2.3 3 5.",
"0.@.* %.@...< 9.*.u +.0...k q B A.m.n.S.m.C B S.&Xm l a : U T.-X&XG.l.|.%X&XS.L @ > =.< u ..0...i 0.%.f Y -X,X:X Xc.0 :.p ..e.3.",
"q.:.+.+.+.0.%.p 0.*.p k T &X;X>X:X:X:X-X:X:X:X&X%X>Xl.. |.1X&X.X X%X-X$X X X:X>X-XY.U.S x u *.@.+.*.P.,X&XY U $X,X<X<Xb %.%.*.0.",
"..:.q.4.a :.0.+.+.k I &X>X&X.X.X%X%X&X&X&X&X%X%X.XS.T. Xm.|.%X.X.X$XoX%X$X.X.X.X%X&X:X>X|.B p 3.H A.T.6 l 0.0.w C :X>X|.l =.p 3.",
"*.%.%.0.+.1 3.%.7 %X<X&X X%X&X|.Y.S.A.S.A.A.G.%XS.A.&X:XS.S.%X%XOX].D.C.`.OX%X$X.X.X.X.X&X2XG G S.6 p +.;.:.3.5.* B ,X>X0 @.p p ",
"y.u < *.:...@.9 :X:X|.%X%XT.A.z.A.A.A.S.S.S.S.V n.>X X$X%X$X%X_.m.!.8X8XR.S.D.).OX$X.X.X%X.Xl.. 1 +.a 3.u < ..4.+.> n.2Xv.; i +.",
"a.p ..1 =.3.$ -X:X|.&X$Xv.v.S.$X:X;X;X-X%X&X=Xn.l.A.%X$X.X$X[.n.j.gXlXlXgXuX9XW.Z.).&X$X&XA.S.7 @.+.u i.%.p a *.0.+.2 B.|.@ h +.",
"y.:.*.< %.+.m.<X|.&XT.v.G.=X:X&XY.n.v.S.%X:XS.S.%XS.%X$X.X%X(.4XlXhXfXfXjXzXlXgXpXR._.%X.X.X>X6 y.p +.i.9.*.1 O.9.j # Q.NXtXc *.",
"+.:...p @.% ].`.:XY.v.|.-X|.v.V V n.G.A.n.T.A.S.=X%X.X.X.X`.E.sXzXhXhXhXhXhXfXhXnXdXE.'..X%X:X9 p - 9.%.%.;.1 @.W NXmXmXmXmXE p.",
"=.1.f.4Xd.7XvXE.M k.`.=X$X|.S.T.T.S.Y.:X$XS.v.|.%X.X.X.X$X(.5XkXfXhXhXhXfXfXhXhXzXaXU.OX.X%X&X@ u 3.=.@.q.%.*.9.f.mXmXMXbXw 4.4.",
"q.c mXmXmXmXmXnXf.0X/.|.OX&X=X&X&X%XA.v.A.|.G.%X X.X.X.XoXC.wXlXhXhXhXhXhXhXhXhXkX5X(.$X.X=XY.: q.3.< %.3.< 4.3.h w $ # g 4.,.2 ",
"3.W mXmXmXmXmXmXmXmXMXR.]..XS.T.&X&X-X$XG.z.V |.%X.X.X.X+XA.uXlXhXhXhXhXhXhXhXjXsXE.`..X.X:XS.l 0.u p +.p < ..< p +.1 1 *.*.+.3.",
"=.4XmXmXmXmXmXmXmXmXmXd d m |.G.A.S.G.T.:X%Xz.|.%X.X.X.XOXA.pXlXhXhXhXhXhXhXhXlXeXZ.OX.X.X:XA.*.+.= e.9.%.%.%.:.*.q.+.a :.a < a.",
"4.d.mXmXmXmXmXmXmXmXmXg 3.*.0 $X&XT.G.A.b.T.G.$X.X.X.X.XOXA.uXlXhXhXhXhXhXhXfXlXwXC.%X.X X<XA %.= p *.0.*.& %.i.u 3.:.:.*.< p 3.",
"e.f mXmXmXmXmXmXmXmXMXg +.+.+.+ T <X,X>X|.z.V %X$X.X.X.X+XF.eXlXhXhXhXhXhXfXzXsXE.`..X.X%X;X0 +.u 9.*.3.*.& +.*.p p %.9...u 9.3.",
"9.=.d.mXmXmXmXmXmXmXtX:.>.+.+.*.-.7 J M.:X;XA.|.$X.X.X.XoXC.9XlXhXhXhXhXhXjXgX5X(.%X.X X1XC *.*...%.:.+.%.:.*.u 9.*.+.*.*.%.3.9.",
"a :.0.W NXmXmXmXmXNX: ..o.p 9.0.e.& %.y.$ 0 n Y.&X.X.X.X$X(.6XgXkXlXlXlXlXkXg.C.OX$X X:XP.+.u 3.0.< +...%.e.e.%.< 9.%.p 9.*.= :.",
"9...+.3.l c f.6X6Xw +.u u :.%.+.3.4.< :.%.*.+.z.>X$X.X$X.X+XY.Q.5XwX8X9X9X6XF.'.$X.X&X%X, @.+.q.#.*.< ;.:.%.@.9.1 @. .3.3.#.#.3 ",
"0.a u ..:.+.@.+.3.p u &  .0.u a %.*... .3.k H T.&X X.X.X.X$X+X).(.C.V.Z.D.(.+X$X.X X,XC ..+.:.3.4 3 p ;.p 1 u >... .*.5.O.p 2 #.",
"s.....u 3.9.p < p 1 *.1 :.y.= *...;.4.3 6 A.T.8   |.&X.X.X.X.X.X$X%X&X&XoX%X.X%X.X;X:Xc ;.< @.1 q.O.+.a.6.p  .*.w. .p 1 p ,.p &.",
"y.:.*.< p ..+.%.p 6.:.1 :.0.6.=.u p +.*.h p z 9 B %X&X.X.X.X.X.X.X.X.X.X.X X%XT.:X X6 ;.%.u p +.0.1 @.u.y.@.=  .*.@. .< 2.0.2 ,.",
"+.:.+.p +.p 0.4.2 *.* @.4...0.* +.p  .y.g K  X,X%XY.Y. X.X.X.X.X.X.X$X$X%XT.T.Y.m , @...:.3.3 $.3 < 0.=.=.3.4 $.a q.4.a O.a a y.",
"3.q.p =.4.@.4.< 2 4 +.9.:.;.6.3 3.*.*.0 %X<X=X<X|.  G.;X X.X.X.X.X.X.X$X X:Xv.S.x.#.y...:.0.4 2  .;.:.+.3.$.,.0.+.q.*.* < p ;.3.",
"3.&.a +.@.j &.2 h &.u.u 5 %.p < 3.$ P.;X-X:X:XL.# 1 q .X<X.X.X.X.X.X.X.X>X%X@ T 2X9 3.< ..@.p +.4.:.=  .2.4 2.#.O.+.p < =.q.=.a ",
"4.+.+.j a +.+.+.4 ,.+.@.:.;.+.$.8 %X,X<X;XS.r +.*.3.=.$ P.>X>X=X&X:X>X;XT.7 4.n 3XG p ..@.< +.#.3. .*.+.@.p O.4 +.+.+.3 3.+.u y.",
"9.+.+.9.9.*.i.= %.@.2 i p.>.< Y >X1X$XY 6 l +.< o.s.%.a p c K T.|.A.L 7 + %.h.@ ;XU.&.*.u.<.2 <.p 1 q.a...+.+.e.*.u.+.h 4.1 2 u.",
"*.@.< :.9.u :.%.>.+.2 &.%.i c.1X,XP.7 @.*.*.p +.X.%.......3.p ; l &.=.4 +.*.*.o.A.1Xc p ..3.=.=.= *...*.+.= :.e.p @.=.4.+.1 &.<.",
"e.%.u ..%.+.p *.>.@.j q.w Y.,X<XC +.%.< 3.9...p 9.%.:.p a >.*.%.u 3.*.; =.0.+.9.b 2XK p ....9...u q.:.*.3.= %.....p %.9...p q.q.",
"3.%.=.*.p 4.*.+.o.*.#.> |.,X;XU p o.9.>...:.>.a 9.%.:...+.;.+.e...p =.=.@.3.%.>.7 <XT.p 0. ...@.=.+.9.+.:.*.:.u >.9.p ..>.%.%.0.",
"..3.3.e...p 0.%...3.l S.;X>XC 0.r.= ..i.u ..:.*...u ..9.0.9.= :.9.1 *.y.+.p  .%.<.Y.>X@ 9.*.= 9.9.1 *.p =.0.e.%.u 9.....:.=.a %.",
"3.%...:.=.< %.:.:.*.S ,X=XY.i j w.*.1 :.*.3.p %.< +.+.*.+.w...u *.*.=.*.p u ..%.+.K 2XA.+.*.*.9...+.p %.*...:.:.= ..%.9.%.+.a a ",
"y.= u u 0.*.a +.4.:  X=X>XC u i p e.+.u 3.q.i h * 9.3.< & %.9. .p 3.*.a +.a 4.%.= 8 <X;XC ; 9.+.1 +.< 9.+.* u 3.:.@.@.q.p h i p ",
"s.p +.= 3.*.@.= s $ |.-X<XI.u <.+.*.3.+.2 4 #.,.1 0.q...%...8.>.u < p =.<.= i.9.*.+ S.,X<XS.$ a 4.+...s.:.+.= g 3.,.4 2 h ,.h &.",
"q.4.@.< p a +.*.p #.}.@XT.l.z #.u < +.:.*.+.5.h 1 9.q.t.#.4 +.*.&.+.@.3.3 +.y.9.0.p # Y.<X>X XT H # f k x o ~ ` ! &.+.4 3.3.< 5.",
"i t.t O ! ~ ! O o o F ) ( } 7 4 +.:.p y.*.+.j ; 9.:.@.3.4 #.+.%.u.+.p p p :.*.u =.2 3.> L ;X<X:X,X}./ ( _ [ [ { [ f 0.p < p +.a.",
"0.l ` { [ [ [ [ [ ' ( ( ' _ z p 3.*.%.:.* < < 0.;.< +.3.p y.=.:.*.1 a < e.%...:.@.#.u.+.*.J  X,X#X| ( [ [ ' ] ^ t 1.#.; < *.3.&.",
"<.> ` [ _ ` _ _ _ _ _ _ [ ~ p p %.p ..p p 1 0.y.a u =.+.+.*.p p p $.a 0.3. .< :.1 @.+.2 +.p : I B ~ O t y % $ p i j i 1 ,.q.*.p ",
"3.@.t ^ ' [ [ ' ] ' [ [ ) f p &.+...*.+.+.a q.1 ..e.:.2 +.+.+.%.@.2 p w.3 *.w. .j @.j +.=.p p #.;.1 0.&.a +.p p #.<.p a =.+.j u.",
"3.+.a q.y ! ^ ` ] ` O t 0.@.p #.0.:.9.0.1 +.j 2 ..i.+.a *.q.*.3.3.4 3.3 = @.i.u j p q.*.4.3.h <.a * y.0...+.3.0.=.q.&.#.3.1 4 y.",
"@.&.1 =.=.; : y o t > ..%.*.p h 3.*.= %.%.@.+.2 %.3.@.p +.3.a p =.3.3.p p ;.%.*.p +.0.p j ,.&.3.a @.+.6.*.& 3.6.4 #.*.3.*.4 +.4.",
"p.&.+.=.:.9.*.3.5.&.=.y.;.6.*.#.3.:.0...y.4.&.=.e.%.y.&.&.0.=.3.h 0.@.$.0.0.3.9.h 4.3.+.#.*.0.+.@.u.4.*.4.+.=.*.&.,.,.0.&.=.s.5."
};
