/* XPM */
static char *_b81f4b14bfc461b85e7dedaf9de40c0iuBul9To9N8vIorB[] = {
/* columns rows colors chars-per-pixel */
"64 64 250 2 ",
"   c #010103",
".  c #05080B",
"X  c #180503",
"o  c #080812",
"O  c #160715",
"+  c #1C1C1D",
"@  c #18181B",
"#  c #0B1313",
"$  c #26160B",
"%  c #3A1907",
"&  c #281B1A",
"*  c #311712",
"=  c #002E0B",
"-  c #002706",
";  c #01350D",
":  c #042C19",
">  c #033916",
",  c #172716",
"<  c #24291C",
"1  c #33221B",
"2  c #39251B",
"3  c #2C3D1D",
"4  c #141D21",
"5  c #0B3E21",
"6  c #1B3A26",
"7  c #1C2826",
"8  c #272626",
"9  c #372823",
"0  c #293726",
"q  c #343A29",
"w  c #333733",
"e  c #482815",
"r  c #55361D",
"t  c #4F2F19",
"y  c #5A3A26",
"u  c #4D3534",
"i  c #633F23",
"p  c #68391D",
"a  c #0C441C",
"s  c #14471C",
"d  c #32451B",
"f  c #326A06",
"g  c #346D0C",
"h  c #386E0D",
"j  c #37700D",
"k  c #3A720E",
"l  c #366E11",
"z  c #3B6B14",
"x  c #3C7414",
"c  c #3E7812",
"v  c #3E7519",
"b  c #3F7819",
"n  c #377011",
"m  c #2C6504",
"M  c #0E4422",
"N  c #174A25",
"B  c #1B542C",
"V  c #1A582D",
"C  c #1C5A32",
"Z  c #075027",
"A  c #394628",
"S  c #255829",
"D  c #3A4633",
"F  c #255A34",
"G  c #31593A",
"H  c #30472B",
"J  c #1C6434",
"K  c #1A602F",
"L  c #28602B",
"P  c #34692D",
"I  c #246235",
"U  c #29683B",
"Y  c #356837",
"T  c #3C7336",
"R  c #2D7437",
"E  c #427A16",
"W  c #41771A",
"Q  c #447C1B",
"!  c #437817",
"~  c #417A0F",
"^  c #444E29",
"/  c #45552A",
"(  c #4C5935",
")  c #565D39",
"_  c #49493B",
"`  c #6B4426",
"'  c #784B31",
"]  c #785233",
"[  c #704B2F",
"{  c #4A6527",
"}  c #467D21",
"|  c #487F22",
" . c #4A7729",
".. c #557C2C",
"X. c #596937",
"o. c #47773B",
"O. c #597635",
"+. c #4B6B33",
"@. c #617A3C",
"#. c #326E41",
"$. c #3A7B45",
"%. c #397646",
"&. c #2E6C43",
"*. c #535446",
"=. c #6C4B42",
"-. c #724F45",
";. c #735146",
":. c #596647",
">. c #437B46",
",. c #5B7945",
"<. c #547D51",
"1. c #47734B",
"2. c #657354",
"3. c #736F4C",
"4. c #885737",
"5. c #965C3C",
"6. c #835230",
"7. c #9A613C",
"8. c #9B6344",
"9. c #906F5B",
"0. c #A86B48",
"q. c #BA7955",
"w. c #AF714C",
"e. c #B57D61",
"r. c #885D4E",
"t. c #C37F5A",
"y. c #47801C",
"u. c #4A821D",
"i. c #4A8419",
"p. c #50891E",
"a. c #478021",
"s. c #4C8423",
"d. c #4F8824",
"f. c #4E8629",
"g. c #4F882A",
"h. c #528A26",
"j. c #518629",
"k. c #548C2B",
"l. c #598E2D",
"z. c #518725",
"x. c #57902C",
"c. c #5A922D",
"v. c #599328",
"b. c #568E30",
"n. c #598F31",
"m. c #598737",
"M. c #579032",
"N. c #5C9433",
"B. c #5F9834",
"V. c #5E9638",
"C. c #5F9839",
"Z. c #4E8430",
"A. c #629C2F",
"S. c #609635",
"D. c #619935",
"F. c #619A35",
"G. c #63943B",
"H. c #649C3B",
"J. c #6A9C3D",
"K. c #648A3D",
"L. c #67A13C",
"P. c #69A23E",
"I. c #69A238",
"U. c #44834C",
"Y. c #4D8A4D",
"T. c #498549",
"R. c #588B46",
"E. c #5B944D",
"W. c #579447",
"Q. c #4D8A52",
"!. c #468751",
"~. c #528D53",
"^. c #5F8653",
"/. c #589455",
"(. c #4C9154",
"). c #688945",
"_. c #6B9C4B",
"`. c #689B46",
"'. c #659B52",
"]. c #679D57",
"[. c #688E54",
"{. c #5CA65D",
"}. c #6CA443",
"|. c #6EA44B",
" X c #6EA842",
".X c #72AA45",
"XX c #74A54B",
"oX c #75AA4B",
"OX c #7AAC4E",
"+X c #71A446",
"@X c #79B14C",
"#X c #6AA355",
"$X c #73A553",
"%X c #7CAE53",
"&X c #76AA56",
"*X c #7EB154",
"=X c #74B954",
"-X c #778B65",
";X c #6B9763",
":X c #799768",
">X c #779A70",
",X c #78AB67",
"<X c #5CA860",
"1X c #7CC264",
"2X c #82AA57",
"3X c #83B355",
"4X c #8BB956",
"5X c #84B45A",
"6X c #8BBB5A",
"7X c #87B758",
"8X c #91BF5B",
"9X c #8BB765",
"0X c #93BD6A",
"qX c #8AA977",
"wX c #92B376",
"eX c #DE9872",
"rX c #CF8B68",
"tX c #E49D76",
"yX c #E1966F",
"uX c #8BC35A",
"iX c #92C35E",
"pX c #98C95F",
"aX c #94C461",
"sX c #9AC768",
"dX c #98D467",
"fX c #9BC573",
"gX c #9CC576",
"hX c #94CA6A",
"jX c #A1CA6B",
"kX c #A3CC75",
"lX c #A5C97C",
"zX c #A7D679",
"xX c #A6BF8A",
"cX c #9BBB86",
"vX c #E4A281",
"bX c #A8C888",
"nX c #ADD485",
"mX c #B6D789",
"MX c #B2CE93",
"NX c #B7D596",
"BX c #B0CE8E",
"VX c #BAE395",
"CX c #B8E988",
"ZX c #C2DE9A",
"AX c #C7E59B",
"SX c #C9FA98",
"DX c #C9E9A3",
"FX c #D8F8A9",
"GX c #D0F1AA",
"HX c #E1FBB0",
/* pixels */
"l.}. XN.s.c.H.z.c.N.b.k.H.s.I.A.F.~ D.}.z.S.}.d.B.B.x.v.F.c.E oXN.s.B.}.s.B.N.v.F.F.l.u.oXh.z.c.D.z.H.d.D..XL.s.k.}.u.c.c.S.| XX",
"E s.c.H.d.Q L.d.u.c.k.s.Q E c.v.D.z.s.c.s.s.N.l.Q E E F.c. XE k.H.Q b.N.k.Q k z.L.c.D.E l.h.Q c.D.E Q Q c.D.N.B.W l.Q u.v.l.s.| ",
"N.s.Q z.c.E z.k.D.z.Q v Q c.u.y.k.l.E s.N.k.s.s.g d.z.d.E H.d.Q d.k.N.Q s.Q z.v.u.u.S.E Q k.c.F.u.Q Q N.z.Q z.N.E s.k.D.k.Q } W ",
" XQ c c J.N.Q d.N.c Q g k.oXc y.s.c.k.u.z.k.E Q k J.D.c c k.D.s.Q B.f.| Q c L.z.h Q c.B.h.Q c.E E Q c H.s.f Q c.N.s.s.N.E Q c s.",
"oXs.s.E k.z.u.x v f.N.k N.D.d.c.E h.k.d.k Q k.c.h L.D.k.z.Q N.k.E Q v `.s.E .XI.l.Q s.D.v.k Q v L.u.Q oXH.s.c k.N.z.E x Q H.E k.",
"c.N.s.E Q E D.k.W V.d.u.L.s.H.s.c Q E D.u.u.N.E u.L.l.`.Q E u.v.N.Q | V.W k.D.B.}.l u.i.k.z.E k.z.E N.H.N.N.h E i.c.N.x M.b.E L.",
"u.H.Q u.k.u.H.c.v v c c.D.z.H.l h.u.u.L.k.u.E j F.v.d.B.x l.E h.H.Q Q c } H.s.u.M.E B.E B.D.b } x d.D.z.l.l.z.N.E B.N.v } x u.P.",
"B.c.Q l.N.k.N.f } g B.F.j k.b.} D.k.N.k.f c x oXh.k N.b.s.J.u.A.z.c E s.}.k.E F.f.N.H.i.A.h.Q v k.J.Q s.H.k c.D.i.L.E v x b.L.Q ",
"k.s.x k.Q v x j.E H.H.c n N.b b s.d.Q x k.c N.H.c Q l.c d.s.s.c E k.Q }.k.Q E l.x j.s.Q E Q f.f. Xz.c E d.k k.c  .} } s.l.H.s.s.",
"N.j.f.l.Q H.b.x } l.Q Q |.M.} s.z.d.l.k.x Q D.c l.|.l.Q Q A d A d d d n.c l.|.u.W | s.s.b.| x k.c.c N.H.s.Q s.z.Z.V.Q E N.k.c |.",
"k.d.E J.N.l.B.E d.k.c E J.d.s.d.}.k.l.H.Q u.s.x u.H.z.Q j.8 & + & + @ m.c z. XE j.d.`.k.N.H.Q B.c x N.}.Q Q k..Xs.H.s.s.k.Q x H.",
"H.k.f c.c.E z.N.k.d.s.l.d.c.u.c c.s.Q s.k.z.c u.k.9 & O _ MXbXbXxXbXMX+ +.c.l.N.c Q B.Q E k.k.d.c N.k.N.s.k z.N.Q s.z.F.u.u.c.c.",
"L.l.z.Q u.N.s.z.N.u.u.B.c.N.s.u.s.N.B.Q c.H.k.j.,.G G :.-XkXfXfXkXkXzX-X:.).k.D.E k.s.d.l.Q N.s.s.D.c.z.D.u.k.c l.z.y.v.i.d.H.J.",
"s.z.}.N.Q B.N.u.k.N.d.s.k.Q c.D.k.E N.k.u.k.H.O.  !.=XCXNX+XOXOXoXXX}.SX2.. s.u.D.D.z.Q D.u.E v.N.Q c.Q N.H.H.u.d.H.E i.v.z.d.N.",
"s.z.k.H.s.E D.c.s.B.k.x u.Q k.k.P.Q z.H.s.u.X.  > = %.,X4X3XBX0XOX%X~.{.H q s.s.H.c.H.E k.v.Q D.B.c s.u.z.c.D.N.k c.u.z.D.k.v a.",
"L.s.k z.c.u.s.k.D.y.x x E H.u.c z.k.E k.k./ :.qXqXqXF L /.E.9X9X6X7XB > >.[.A 3 ! u.v.y.u.u.D.c.E Q c N.c.E d.l.s.s.z.H.k.Q W } ",
"J.c s.c H.B.s.E k.x s.c B.D.y.Q u.D.d.s...< :XFXVXAXo.L Q.$.|.%X$XR.S N '.6X0 7 ( z m.H.x.Q k.Q Q a.u.L.a.c x B.N.g.d.g.x s.Q s.",
"*XN.l.x k.k.u.E Q l.N.h c.L.c.B.c k.z. .@ %XiX3X7X7XaXiX$X$.%X#XC > 9XsX3X3XaX{.H   9 H.x.j b a.}.E s.oXH.l.c s.H.l.g x k.V.b b.",
"s.l.s.c E c N.N.} N.u.Q B.z.N.Q c s.c K.@ T.kX`.; s > R.dX#X%X&X_.$X6XOX3X_.N !.[.2XqX< N.d.E g.d.g C.B.N.N.g Q Q b.M.b s.N.g |.",
"k.J.E k.N.s.J.s.l x Q D.c.s.L.l c.s.k.G.@ <.E.o.G Y G o.`.4X*X3X5X&X%X9X0X_.S F W.zXnX_ O.+XE x c d.L.d.N.d.u.H.b }.M.E g Q l.H.",
"B.B.E l.N.s.k.x x b L.d.j s.k.b B.d.d...8 ~.> 1.FXZXHX<.; 6X3X7X'.$.oXBXlX*X6Xs B /.3XFXw ^ Q x C.H.E Q B.x l.N.d.N.Q v Q b.N.Q ",
"d.E Q s.u.Q Q Q } N.B.k E h.c Q u.k.{ *.MXN ^.lX%X!.9XiX*XiXiXaX7X$X%X5X5X%X3X3XL S aXGX8 A s.k.J.u.E Q s.b s.x d.Q a.Q b.H.c k.",
"J.s.s.l.c.l.c.Q Q M.c u..XD.s.f.O.O.( :XzX= >XAX}.#XT T o.T T P R.aX3XOX%X3X%XdXS N sXfX-X:.O.g.d.x H.B.Q g.g.k.k.N.E E k.Q Q |.",
"l.k.s.J.H.s.|.s.b.M.c Q c.z.u.m.o   -XSX}.a >XnXOX7XS : 5 M 5 : L 3X&X%X%X&X*X6XT Y 3X}.SX-Xo H.b Q k.|.s.x M.oXs.H.M.k.M.b b V.",
"J.d.h d.d.u.c D.k.E s.H.u.c.z w MXNX0XOX3X%X&XaX%X= :XZXMXBXBXDX[.- Y.6X'.>.3X6X0X'.$.XXSX-X+ u.v H.z.l.c.f d.k.E E k.c.Q u.L.N.",
"D.c.s.s.s.H.z.Q H.k.Q N.N.{ q qXfXgX9X_.Y.%X6XR.Y ;X0XlXfX0XjXkX9X^.F >.#X&X3X/.$X3X'.7X,.( ..d.s.l.D.u.z.u.N.W v.c.Q N.z.z.k.L.",
"u.c.H.B.E c.H.s.s.N.d.s...q 2.SXoX+X3X#XT.9XsXP > DXgX+XoXoX|.J.jXAX5 C ].7X$XT.'.4X7XiX# ( u.N.V.c k.Q c.J.J.d.u.H.Q d.c.l.Q N.",
"k.z.z.J.s.c N.z.k.k.k.Q O ,.dX*X3X*X%X%X3XNXzXP 5 DXgX+XOX3XU.W.kXNXN #.~.>.U.3X4X3X3XiX< X.s.D.N.c Q s.x.c.N.B.h k.d.s.D.d.Q Q ",
"}.E c k.c.u.d.z.L.c E n O [.dX~./.3X3X%X3X9X9X%XR.F R.kXbX%X#XaX$XM ; = U /.U.Y.Y.~./.Y.wX2., < c s.E N.E c Q B.s.u.k.H.l.c E s.",
"oXQ u.c l.N.Q Q u.Q s.h :.,.,.J I E.3X3X3XOX_.5X7Xs m.kXbX%X7X|.o.F 1.1.Y R Q.~.~.>.I %.VXwXw *.X.j.E .Xh.Q E k.H.s.E k.E j.} s.",
" Xc.k.x z.k.Q E k D.H.E D.)   a > &.#X4X3X3XY.Y.7X6X3XOXOX*XiXs G FXAXFX[.; Q.*XsX).> $.wXZXDXDX8 / s..XF.k.c a.D.k.x x } J.} j.",
"s.c.u.Q d.g N.D.u.z.c c |.A 7 VXMXN N ~.U.$.W.*X3X%XbXgXoX%X4X|.9XNX0X%XlXqX= _.7XhXcX- qXFXBXNXNX:./ k.z.x.c d.E l.B.} n.} f oX",
"l.J.s.k.V.k.|.g v m Q J.O.:.:XnXnXR.o.E.E.;XwX0XoX%XgX0XOX*X'.$XsXgX&X.XsXgX<.&X%X9XbX^.<.qXMX0XCX:.< d.D.z.k.D.s.`.j.g g } B.B.",
"S.s.W k.j.k.Q Q x k.}.j.o qXSX`.oX7X6X7X0XmXNXgX%X%XOXOX3X3XU.].6XoX%X%X+X7XAX6XOXOX%XGXN F mXXXuX/ q z.c.x B.N.} k.s.E f.B.b.v ",
"N.s.Q s.c z.s.Q v b./ w NXfXOX6XdX; 1.FXMX5X+XfXMX%X3X3X%X3X5X9X7XaX4XY./.8X7X3X4X7X3X].> S aX%XpX( q s.Q x u.x Q s.c c k.k.s.N.",
"l.l.z.l.N.k. Xc d.f.3 + ,XiX%XE.T <.qXlX0X%XXX9XkX4X'.$X3XE.%XiX`.Y ].~.~.#X'.].].&X'.N P _.iX6X1XH 8 D.d.z.z.c.k.H.s.E c.E c oX",
"B.d.E N.H.Q N.s.j.k.A + U #X&XU - bXmXJ.oX%X7XXXG.%XU./.$X$.&X8XT.> #.>.%.#.#.#.%.%.#.N XXpX_.XX$.D X.D.k.f z..XE N.c.c.k.c Q N.",
"L.s.k s.d.u.E c.N.s.A @ Y.Q.Q.$.M $XpX7X%X%XsXm.> U.Q.Q.!.(.6X'.U.T.a > a a > N B > s 5XjXE.Z K . @.k.N.k.f s.k.Q Q z.D.u.E D.N.",
"B.l.z.z.s.H.z.s.H.d.l.K.+ Y <XU.B S S o.dXdXm.s B ~.%.R I 0 Y T.~.~.>.F N N B F V M S pX#XN . # O.l.c.s.k.c.k.E D.k.s.k.k.z.N.D.",
"E c. Xc.Q u.L.u.d.B.E u./ H %.$.I a ; B ).).S 5 I U.F 5 6 * : U U.$.U.U V F #.I C C I |.S 0 ^ ( H.c s.u.k.P.L.z.c D.z.Q F.k.k c.",
"D.u.s.N.c.h k.l.N.k.s.E E ) . K C F I N O O 6 J C U 0 O 1 ` & 6 K V V C C U I B C C C V . X.s.H.f.g.x c.c.d.d.D.c d.u.N.N.g.s.b ",
"J.c E u.c.s.d.s.N.Q E f y.J.+.# @ + o D N.S.( . w 7 2 e i 0.y < 4 4 @ B R F @ 8 + + @ @ O.z.c.M.x b Q c.Q c E x.u.y.k.C.s.Q v a.",
"@Xu.u.E N.D.Q c Q c k.c c.P.z ^ ^ / A +.E E ..q 8 1 ` 6.6.4.4.y & 1 1 6 N 0 e & A ^ / / N.c d.c H.a.s.oXB.Q y.k.L.y.Q c Q b.Q k.",
"}.c.k.c Q u.s.z.Q C.c.c c.H.B.l.E Q s.k.s.u.H.m.@ r 7.q.5.t 8.4.y ` ` 9 O & ` & K.x u.x.h.E Q s.J.c d.|.}.d.j u.k.d.u.x M.H.v b.",
"s.c.s.Q s.Q H.B.v k.g d.B.u.J.g s.Q u.}.l.} d.g n.# e.rX4.8.i ] 0.0.8.0.p X @ ! N.x d.u.c.N.b g.c c H.l.l.N.n g.b H.B.E a.b E }.",
"N.H.Q l.B.d.B.x v n d.D.c.k.B.b N.k.k.c.c n v N.N.).*.8.q.0.r ] 8.' 8.rX' + @.v.s.k.}.u.c.H.n c y.x.c.s.M.g.b.H.s.H.k.g x Q c.N.",
"N.k.E s.d.} k.v } k.|.E m h.Q x N.s.s.E E Q b.|.c c , [ tX7.` 8.4.t 5.tX;.0 x B.v g.N.c u.d.Q s.B.c.k u.b.x M.f.a.d.Q x l.H.c.E ",
"B.| s.| E s.s.s.n b.s.d.c.x.s.g.a.Q k.g.s.x C.s.k.N.0 -.eX5.0.q.6.r 5.eX-.0 B.y.Q s.Q u.d.x s.g.N.y.k.s.d.Q a.x s.d.s.b N.s.E }.",
"D.s.s.D.D.k..Xk h.d.v W .Xv.E N.D.d.D.}.x k.s.x u.@X0 -.yX8.] 4.4.r 5.eX-.0 3X~ s.s.N.k.|.n.v n.Q c H.oXu.s.s.L.k.|.s.} B.c v |.",
"k.d.c c.D.E c.z.v.s.v k.h.p.E | P.s.u.d.k.k.Q s.u.k.0 =.yX0.` 4.4.r 5.eX-.0 k.p.Q s. XQ u.N.l.l.k k.u.k.s.k c.L.Q d.l.B.s.c k.n.",
"L.z.E u.z.s.Q k.v.d.| H.k.h.s.v z.v.k.c N.S.u.Q F.k.0 =.tX8.0.w.] r 5.tX=.0 s.F.k s.c.Q u.u.D.u.E H.c.k.N.k z.u.u.Q z.D.u.Q H.H.",
"N.z.l.k.Q B.k.s.z.k.f.d.v.i.c.b.u.p.F.v.u.c.l.E F.H 3.rXq.w.% ' q.4.w.w.e.9.0 v.k.c.u.u.H.y.u.d.l.s.D.s.c.k.c.E v.F.Q u.v.z.z.H.",
"u.N.N.L.u.Q H.z.u.N.k.E i.E k.H.P.k u..XE u.G.O.@._ rX0.t ` t r 4.w.` i w.rXu O.).G.c.E F.k.k D.D.c k.Q l.H.L.z.E F.u.u.c.l.E k.",
"N.z.u.c.l.c z.c.c.k.} Q E v.u.} H.k.c c.k.S.)   & vXt.e   X w.e % 0.X $ ` q.vX&   ) J.E s.k.k.F.u.s.Q z.k.u.c.c.k u.k.D.z.s.E E ",
" Xk E E J.k.E s.B.Q x l y.I.E W E L.s.E N.H 9.yX7.[ % e ` i [ % % [ ` % r ] ` r 7.4.q N.d.E D.s.c u.x D.s.h E N.c.d.d.H.Q Q W Q ",
"@XQ s.k N.k.d.k ~ E V.W F.F.E N.s.k.N.s.W o u r.y & X $ 9 2 1 $ $ 1 2 1 1 1 & 1 y 2 @ }.H.x } E B.s.u.*Xc.s.k v.V.l.l v } b.} k.",
"H.B.d.c Q E s.k.Q N.k.j B.B.H.g.E c s.c.k.^ 0 0 0 q D D q 0 q A A 0 D _ q q D A q < ^ k.N.Q Q j.N.c N.H.J.l.c E k.k.s.x N.N.n V.",
"W `.s.Q z.E D.D.Q Q x H.L.u.N.n s.c.Q  Xk.s.| n D.c.d.N.x f.s.z.|.s.Q Q Q c.k.E l.v N.s.N.`.Q | c E J.d.k.k.c l.v N.J.Q x E s.XX",
"H.N.Q N.N.z.H.f x v d.D.Q l.C.Q N.k.z.c.g x x H.x.c s.N.Q }.l.c.k.c E x L.z.u.c.d.f.}.s.k.H.v x s.B.s.s.B.s.N.J.k.N.f.l x k.N.k.",
"n.} u.Q Q u.u.E Q b.|.E f N.Q Q z.Q u.Q Q c H.}.E E l.s.| k.Q Q Q g.E J.N.u.c c.c d.s.v | Q | s.J.B.x Q l.x d.Q W } v v l.S.k.Q ",
"N.d.k.z.Q k.z.Q } l.s.y.L.l.Q g.s.u.k.s.s.E H.c u.L.c.v s.s.s.z.d.x Q }.c k.L.y.} d.| s.l.Q Q f.N.c H.d.E d.E E f.n.Q E l.s.| |.",
"N.s.E J.D.N.L.E g.l.j y..Xd.Q f.H.c.D.H.c s.| v u..Xs.Q k.S.k.N.N.l N.b k d..XE | Q S.k.B.N.} n.E g J.J.s.s.N.J.l.V.j.f.n.c x }.",
"d.k.c l.l.c u.c.b.k.Q y.d.k.} } N.k.k z.z.d.s.v z.N.d.Q s.N.E Q l.N.M.Q Q c.z.k.} s.H.} | b.k.N.E d.d.S.k.f N.B.x f.k.N.j.x s.V.",
"oXk.s.l.c.D.z.N.V.k.k. Xx.B.k.g.N.c.J.u.}.B.k.l.P.z.}.j.k.H.l.N.} J.d.d.H.H.N.D.} B.N.s.f.k.H.s.d..XB.l.B.s.l.k.k.b.b.H.k.l.OXV."
};
